<svg width="393" height="260" fill="none" xmlns="http://www.w3.org/2000/svg"><path d="M134.001 13c-37.88.27-68.456 35.676-68.997 79.46C64.462 160.026 125.884 215.973 134 223c8.118-7.027 69.269-63.243 68.998-130.54-.27-43.784-31.117-79.19-68.998-79.46Zm0 110c-20.834-.27-37.34-17.297-37.07-37.838.272-20.54 16.777-37.027 37.07-37.297 20.564.27 37.07 16.757 37.07 37.297.27 20.541-16.235 37.297-37.07 37.838Z" fill="#CBB1FB"/><g clip-path="url(#a)"><path d="M285.941 215.296c2.119 5.034-6.65 10.037-23.23 6.035-.007-.004 18.814-16.526 23.23-6.035Z" fill="#0A103D"/><path d="M252.845 217.466c.355 1.342 1.571 6.044 2.134 7.808 1.331 4.233 3.061 9.175 4.243 12.272.01.012.793.626 2.23 1.142.048.013.094.029.14.049 1.638.555 3.711 1.026 5.245.588 1.101-.314 2.858-5.865 2.931-6.4 0 0-.544-4.199-.82-6.538-.06-.6-.122-1.177-.174-1.754-.097-1.108-1.604-12.258-1.554-13.582l-14.375 6.415Z" fill="#fff"/><path d="M265.459 239.803c-1.109 0-2.436-.26-3.967-.779a.919.919 0 0 0-.122-.044l-.023-.006c-1.423-.511-2.288-1.143-2.366-1.239a.296.296 0 0 1-.047-.083c-1.087-2.848-2.822-7.752-4.249-12.289-.484-1.516-1.428-5.115-1.935-7.049l-.203-.772a.31.31 0 0 1 .02-.21.31.31 0 0 1 .152-.147l14.375-6.416a.32.32 0 0 1 .153-.026.308.308 0 0 1 .281.317c-.034.891.706 6.736 1.147 10.228.21 1.659.376 2.969.406 3.316.036.399.076.793.119 1.209l.055.541c.272 2.306.813 6.488.819 6.53a.307.307 0 0 1-.001.08c-.036.266-1.765 6.258-3.151 6.653a5.33 5.33 0 0 1-1.463.186Zm-3.757-1.354c1.481.5 3.556 1.006 5.05.58.057-.016.591-.238 1.649-2.934.561-1.43.993-2.859 1.055-3.178-.059-.459-.556-4.312-.814-6.497l-.055-.545c-.043-.419-.084-.814-.12-1.217-.029-.336-.194-1.641-.403-3.293-.549-4.34-1.047-8.345-1.138-9.85l-13.717 6.122.138.523c.469 1.791 1.447 5.518 1.926 7.019 1.41 4.483 3.121 9.324 4.206 12.175.195.141.904.621 2.068 1.04.052.015.104.033.155.055Z" fill="#0A103D"/><path d="M255.447 226.753a179.162 179.162 0 0 0 3.77 10.784c.01.012.793.627 2.23 1.142.048.014.094.03.14.049l5.245.589c1.101-.314 2.995-5.615 3.067-6.149-.008-.035.132-.185.119-.214-.401-2.311-1.132-7.396-1.249-8.329l-13.322 2.128Z" fill="#9763F6"/><path d="m256.419 229.794 12.794-2.049-.122-.757-12.922 2.069.25.737Z" fill="#fff"/><path d="M265.459 239.803c-1.109 0-2.436-.26-3.967-.779a.919.919 0 0 0-.122-.044l-.023-.006c-1.423-.511-2.288-1.143-2.366-1.239a.296.296 0 0 1-.047-.083c-1.087-2.848-2.822-7.752-4.249-12.289-.484-1.516-1.428-5.115-1.935-7.049l-.203-.772a.31.31 0 0 1 .02-.21.31.31 0 0 1 .152-.147l14.375-6.416a.32.32 0 0 1 .153-.026.308.308 0 0 1 .281.317c-.034.891.706 6.736 1.147 10.228.21 1.659.376 2.969.406 3.316.036.399.076.793.119 1.209l.055.541c.224 2.09.812 6.484.818 6.528a.282.282 0 0 1 0 .082c-.036.266-1.765 6.258-3.151 6.653a5.33 5.33 0 0 1-1.463.186Zm-3.757-1.354c1.481.5 3.556 1.006 5.05.58.057-.016.591-.238 1.649-2.934.56-1.429.992-2.857 1.055-3.177-.063-.475-.602-4.517-.814-6.501l-.055-.542c-.043-.419-.084-.814-.12-1.217-.029-.336-.194-1.641-.403-3.293-.549-4.34-1.047-8.345-1.138-9.85l-13.716 6.122.137.523c.469 1.791 1.447 5.518 1.926 7.019 1.41 4.483 3.121 9.324 4.206 12.175.195.141.904.621 2.068 1.04.052.015.105.033.155.055Z" fill="#0A103D"/><path d="M269.432 230.195s1.245 9.737 1.735 16.293l-25.291.382s-4.687-.356-6.264-2.483c0 0 3.508-7.947 14.653-10.579 5.167-1.219 8.824 1.698 12.181-2.09 1.634-1.856 2.986-1.523 2.986-1.523Z" fill="#fff"/><path d="m245.877 247.176-.024-.001c-.197-.015-4.847-.392-6.489-2.606a.304.304 0 0 1-.034-.304c.036-.084.925-2.065 3.208-4.394 2.1-2.142 5.827-4.984 11.656-6.361 2.062-.486 3.9-.328 5.522-.189 2.544.219 4.553.391 6.499-1.804 1.736-1.973 3.229-1.634 3.291-1.618a.303.303 0 0 1 .232.258c.012.097 1.251 9.82 1.736 16.309a.302.302 0 0 1-.181.302.314.314 0 0 1-.121.027l-25.291.381h-.004Zm-5.904-2.828c1.535 1.813 5.648 2.193 5.914 2.216l24.948-.377c-.455-5.885-1.487-14.191-1.678-15.71-.402 0-1.35.161-2.479 1.443-2.152 2.429-4.406 2.235-7.015 2.011-1.576-.135-3.362-.289-5.327.175-5.685 1.342-9.313 4.108-11.356 6.192-1.838 1.875-2.75 3.537-3.007 4.05Z" fill="#0A103D"/><path d="M255.419 243.603c.688-.271 1.232-.485 1.526-.525.558-.07 1.062.05 1.548.166.661.156 1.344.319 2.25.129 1.101-.227 1.863-.825 2.6-1.405.729-.57 1.418-1.108 2.401-1.278 2.175-.375 4.173.856 5.026 1.487l-.067-.683c-1.044-.703-2.936-1.673-5.047-1.306-1.105.195-1.875.795-2.621 1.376l-.01.007c-.721.567-1.403 1.102-2.389 1.308-.766.164-1.384.022-1.983-.114l-.04-.01c-.507-.121-1.081-.259-1.723-.175-.349.046-.874.25-1.599.532l-.064.025c-1.53.604-3.841 1.517-6.563 1.729-2.951.226-5.707-.455-8.206-2.026-.093.142-.184.285-.273.429 2.546 1.602 5.067 2.144 7.361 2.144 3.294 0 6.119-1.116 7.873-1.81Zm14.483-5.29c-1.04.18-2.219.385-3.865-.83a9.713 9.713 0 0 1-.647-.532c-.74-.636-1.661-1.428-3.002-1.509a.257.257 0 0 0-.265.244.26.26 0 0 0 .237.267c1.149.066 1.926.725 2.678 1.362l.029.025c.267.234.476.404.678.552 1.145.85 2.106 1.071 2.932 1.071.484 0 .921-.076 1.323-.145l.158-.025c.09-.015.176-.029.261-.041l-.056-.513a8.812 8.812 0 0 0-.354.055l-.107.019Z" fill="#0A103D"/><path d="M268.074 245.21c.61-.28.996-.714.997-1.21-.002-.867-1.165-1.546-2.646-1.549-1.481-.002-2.655.678-2.656 1.537-.003.435.289.832.819 1.129a3.824 3.824 0 0 0 1.827.419 3.875 3.875 0 0 0 1.659-.326Zm-10.704-5.945c-.01-.036-1.057-3.69-5.269-5.698a.707.707 0 0 0-.942.336.705.705 0 0 0 .323.929l.014.007c3.467 1.652 4.475 4.694 4.516 4.822a.708.708 0 0 0 .885.472l.016-.005a.703.703 0 0 0 .457-.863Zm-3.07.628c-.013-.039-1.341-3.871-5.541-5.488a.707.707 0 0 0-.899.428.701.701 0 0 0 .397.879c3.488 1.347 4.695 4.611 4.707 4.642a.701.701 0 0 0 .89.436l.015-.005a.708.708 0 0 0 .431-.892Zm-2.713 1.437c-.013-.038-1.339-3.87-5.542-5.488a.707.707 0 0 0-.898.428.7.7 0 0 0 .396.879c3.489 1.347 4.696 4.611 4.707 4.642a.697.697 0 0 0 .889.436l.016-.006a.705.705 0 0 0 .431-.891h.001Z" fill="#9763F6"/><path d="M315.522 184.617c6.211 3.028-1.004 16.534-10.481 21.87-.308.173-5.736 3.65-5.779 4.138.12-3.925 6.276-30.875 16.26-26.008Z" fill="#0A103D"/><path d="M294.172 208.908c1.177.743 4.948 3.438 6.573 4.354 3.874 2.205 8.521 4.667 11.514 6.13.016.005 1.012-.075 2.417-.669a.74.74 0 0 1 .142-.054c1.587-.702 3.427-1.752 4.248-3.105.598-.971-1.643-6.141-1.96-6.579-.027-.02-.046-.04-.073-.06a109.265 109.265 0 0 1-5.274-4.277c-.454-.401-.897-.787-1.332-1.167-.827-.744-6.301-4.981-7.176-5.977l-9.079 11.404Z" fill="#fff"/><path d="M312.261 219.691a.35.35 0 0 1-.094-.009.352.352 0 0 1-.045-.018c-3.166-1.548-7.8-4.015-11.531-6.139-1.049-.591-2.978-1.913-4.529-2.975a84.907 84.907 0 0 0-2.056-1.386.309.309 0 0 1-.133-.334.306.306 0 0 1 .057-.114l9.079-11.404a.304.304 0 0 1 .234-.116.3.3 0 0 1 .24.104c.557.635 3.136 2.703 5.019 4.213 1.029.826 1.842 1.478 2.132 1.739l.247.215 1.083.95a108.846 108.846 0 0 0 5.256 4.264c.015.01.033.025.051.04l.015.013a.31.31 0 0 1 .07.07c.245.339 2.711 5.719 1.973 6.917-.707 1.165-2.183 2.251-4.385 3.225a.352.352 0 0 1-.042.015.574.574 0 0 0-.09.034l-.015.007c-1.175.497-2.2.689-2.536.689Zm-17.638-10.859c.444.292 1.077.726 1.789 1.214 1.541 1.055 3.458 2.369 4.485 2.948 3.692 2.101 8.268 4.539 11.421 6.084.23-.026 1.078-.149 2.23-.636.053-.025.108-.046.163-.063 2.046-.908 3.46-1.936 4.091-2.975.144-.234.056-1.218-.663-3.229-.513-1.433-1.107-2.726-1.264-2.984l-.008-.007a109.174 109.174 0 0 1-5.31-4.307c-.369-.326-.729-.64-1.084-.95l-.25-.219c-.28-.252-1.127-.931-2.109-1.718-1.789-1.436-3.969-3.185-4.84-4.024l-8.651 10.866Z" fill="#0A103D"/><path d="M302.092 214.033a179.278 179.278 0 0 0 10.151 5.361c.017.005 1.013-.074 2.418-.669a.866.866 0 0 1 .142-.054l4.248-3.105c.598-.97-1.643-6.14-1.96-6.579-.027-.019-.036-.222-.063-.242-1.875-1.429-5.9-4.659-6.624-5.261l-8.312 10.549Z" fill="#9763F6"/><path d="m304.935 215.636 7.978-10.138-.612-.475-8.057 10.239.691.374Z" fill="#fff"/><path d="M312.261 219.691a.35.35 0 0 1-.094-.009.352.352 0 0 1-.045-.018c-3.166-1.548-7.8-4.015-11.531-6.139-1.049-.591-2.978-1.913-4.529-2.975a84.907 84.907 0 0 0-2.056-1.386.309.309 0 0 1-.133-.334.306.306 0 0 1 .057-.114l9.079-11.404a.304.304 0 0 1 .234-.116.3.3 0 0 1 .24.104c.557.635 3.136 2.703 5.019 4.213 1.029.826 1.842 1.478 2.132 1.739l.247.215 1.083.95a108.846 108.846 0 0 0 5.256 4.264c.015.01.033.025.051.04l.015.013a.31.31 0 0 1 .07.07c.245.339 2.711 5.719 1.973 6.917-.707 1.165-2.183 2.251-4.385 3.225a.352.352 0 0 1-.042.015.574.574 0 0 0-.09.034l-.015.007c-1.175.497-2.2.689-2.536.689Zm-17.638-10.859c.444.292 1.077.726 1.789 1.214 1.541 1.055 3.458 2.369 4.485 2.948 3.692 2.101 8.268 4.539 11.421 6.084.23-.026 1.078-.149 2.23-.636.053-.025.108-.046.163-.063 2.046-.908 3.46-1.936 4.091-2.975.144-.234.056-1.218-.663-3.229-.513-1.433-1.107-2.726-1.264-2.984l-.008-.007a109.174 109.174 0 0 1-5.31-4.307c-.369-.326-.729-.64-1.084-.95l-.25-.219c-.28-.252-1.127-.931-2.109-1.718-1.789-1.436-3.969-3.185-4.84-4.024l-8.651 10.866Z" fill="#0A103D"/><path d="M314.514 206.953s8.569 4.32 14.178 7.425l-13.184 20.51s-2.798 3.575-5.365 3.708c0 0-4.603-7.057-.802-17.407 1.766-4.799 6.095-6.175 4.793-10.887-.635-2.312.38-3.349.38-3.349Z" fill="#fff"/><path d="M310.142 238.904a.314.314 0 0 1-.147-.037.313.313 0 0 1-.111-.103c-.048-.074-1.189-1.846-1.869-4.923-.625-2.83-.953-7.34 1.036-12.756.705-1.916 1.816-3.308 2.795-4.535 1.533-1.922 2.744-3.439 1.991-6.166-.674-2.452.41-3.595.456-3.643a.304.304 0 0 1 .171-.088.305.305 0 0 1 .19.029c.086.043 8.638 4.358 14.188 7.43.037.02.069.048.094.081a.296.296 0 0 1 .06.235.32.32 0 0 1-.044.116l-13.184 20.51a.319.319 0 0 1-.016.023c-.118.151-2.915 3.688-5.593 3.827h-.017Zm4.464-31.56c-.224.361-.614 1.28-.174 2.878.835 3.026-.526 4.732-2.103 6.708-.95 1.191-2.028 2.542-2.699 4.365-1.933 5.264-1.621 9.641-1.019 12.386.543 2.475 1.412 4.105 1.697 4.596 2.284-.272 4.785-3.36 4.949-3.565l12.999-20.224c-5.021-2.766-12.268-6.444-13.65-7.144Z" fill="#0A103D"/><path d="m317.929 225.478.004-.024c.146-.687.261-1.23.389-1.487.241-.483.607-.821.962-1.15.482-.452.98-.919 1.306-1.737.398-1 .322-1.927.249-2.824l-.003-.038c-.072-.881-.14-1.714.24-2.584.852-1.938 2.914-2.888 3.884-3.239a80.971 80.971 0 0 0-.588-.308c-1.153.471-2.925 1.47-3.749 3.351-.432.99-.355 1.926-.281 2.831l.003.038c.071.874.138 1.699-.216 2.588-.287.723-.764 1.168-1.186 1.56l-.012.012c-.386.361-.785.733-1.054 1.282-.152.3-.261.814-.411 1.525l-.033.158c-.325 1.543-.816 3.875-2.079 6.145-1.39 2.487-3.415 4.334-6.024 5.506.065.149.132.297.201.444 6.502-2.905 7.774-9.041 8.398-12.049Zm.68-11.8c-.231.082-.478.152-.777.234l-.028.008c-.956.27-2.04.576-2.808 1.601a.242.242 0 0 0 .041.337.213.213 0 0 0 .094.055.212.212 0 0 0 .109.004.214.214 0 0 0 .156-.094c.681-.906 1.643-1.171 2.574-1.428.292-.079.554-.153.806-.247 2.064-.736 2.597-1.95 3.025-2.926.054-.126.111-.252.169-.377l-.438-.224c-.064.134-.125.269-.185.405-.408.931-.87 1.987-2.738 2.652Z" fill="#0A103D"/><path d="M323.48 219.133c.203-.034.399-.103.578-.203.484-.25.952-.695 1.317-1.242.792-1.19.869-2.488.166-2.951-.355-.236-.836-.215-1.356.058-.484.25-.952.696-1.317 1.242a3.78 3.78 0 0 0-.641 1.687c-.048.583.119 1.03.473 1.257.23.15.51.205.78.152Zm-8.713 1.54c-.37-.068-3.714-.583-7.044 1.939a.672.672 0 0 0-.129.94.688.688 0 0 0 .488.262l.006.014.152-.019a.615.615 0 0 0 .306-.129c2.772-2.094 5.655-1.736 5.975-1.688l.009.001a.678.678 0 0 0 .774-.552.669.669 0 0 0-.537-.768Zm-.932 3.525c-.038-.005-3.845-.528-6.984 2.247a.66.66 0 0 0-.225.462.662.662 0 0 0 .166.48l.014.015a.722.722 0 0 0 .6.203l.004-.001a.677.677 0 0 0 .343-.158c2.541-2.244 5.691-1.942 5.885-1.92l.024.003a.676.676 0 0 0 .744-.596.676.676 0 0 0-.571-.735Zm-.716 3.223a.664.664 0 0 0-.459-.232l-.011-.001c-.615-.039-3.793-.113-5.977 2.24a.674.674 0 0 0 .045.95.708.708 0 0 0 .562.165l.007-.002a.693.693 0 0 0 .386-.208c1.881-2.028 4.851-1.814 4.883-1.811a.673.673 0 0 0 .693-.874.65.65 0 0 0-.129-.227Z" fill="#9763F6"/><path d="M285.652 215.387c-4.24-8.216-16.917 2.621-21.924 4.422-2.114.761-5.395 1.468-10.023.704-10.343-36.56-3.864-70.343 6.093-95.406.99-.459 2.791-.993 4.979-1.352 6.601-1.086 16.728-.59 18.762 8.327 2.498 10.959-6.562 22.417-8.131 43.574-.54 7.298.438 14.046 2.116 20.113l.043.152c.076.274.155.548.235.822 2.139 7.321 5.254 13.614 7.85 18.644Z" fill="#fff"/><path d="M257.548 221.146c-1.257 0-2.555-.11-3.893-.331a.313.313 0 0 1-.156-.073.305.305 0 0 1-.09-.146c-4.764-16.839-6.304-34.377-4.577-52.127 1.419-14.583 5.012-29.21 10.68-43.474a.3.3 0 0 1 .156-.165c1.14-.529 3.032-1.044 5.059-1.377 2.391-.393 7.031-.862 11.234.422 4.295 1.312 6.946 4.051 7.878 8.14 1.318 5.778-.502 11.591-2.805 18.95-2.141 6.84-4.568 14.592-5.318 24.714-.487 6.578.201 13.123 2.106 20.009l.043.154c.076.272.154.545.233.816 2.025 6.928 4.959 13.029 7.828 18.59a.298.298 0 0 1-.039.337.309.309 0 0 1-.435.035.32.32 0 0 1-.075-.093c-.727-1.409-1.719-2.279-3.035-2.659-3.756-1.086-9.244 2.11-13.653 4.679-1.935 1.127-3.606 2.101-4.855 2.55-1.942.699-4.046 1.049-6.286 1.05v-.001Zm-3.599-.903c3.542.557 6.796.315 9.674-.721 1.196-.431 2.845-1.391 4.754-2.503 4.511-2.628 10.126-5.899 14.138-4.739.589.17 1.126.433 1.61.787-2.465-4.92-4.875-10.271-6.619-16.238-.08-.275-.159-.551-.236-.827l-.042-.149c-1.924-6.957-2.619-13.57-2.127-20.219.756-10.192 3.194-17.98 5.344-24.851 2.276-7.271 4.074-13.015 2.793-18.633-2.268-9.946-14.665-8.709-18.411-8.093-2.228.366-3.909.89-4.788 1.277-8.766 22.113-16.903 56.481-6.09 94.909Z" fill="#0A103D"/><path d="M255.769 121.571c31.889 10.585 42.65 3.332 39.59-.098-5.282-6.327-39.024-2.237-39.59.098Z" fill="#0A103D"/><path d="M264.837 119.59c2.926-1.186 13.788-5.678 21.403-.702 17.512 11.659.784 44.219 1.356 51.464 6.612 5.473 20.712 12.522 27.057 14.243-9.066-2.461-5.209 16.406-17.745 26.147-4.565-2.751-13.668-9.646-19.384-14.973v-.001c-5.606-4.965-11.015-10.278-13.606-16.39-5.662-13.357 1.43-37.023 1.491-42.168" fill="#fff"/><path d="M296.908 211.047a.308.308 0 0 1-.16-.044c-4.456-2.686-13.533-9.511-19.434-15.012l-.009-.009c-5.559-4.924-11.061-10.33-13.671-16.487-4.288-10.116-1.338-26.008.425-35.503.574-3.091 1.027-5.532 1.042-6.787a.306.306 0 0 1 .312-.302.304.304 0 0 1 .304.31c-.015 1.306-.473 3.771-1.052 6.89-1.75 9.428-4.68 25.207-.462 35.155 2.564 6.05 8.017 11.4 13.527 16.281l.02.019c5.795 5.399 14.648 12.07 19.135 14.811 6.016-4.771 8.147-11.678 9.862-17.238 1.408-4.565 2.578-8.358 5.514-8.976-7.091-2.515-18.972-8.693-24.862-13.569a.316.316 0 0 1-.11-.212c-.154-1.957.887-5.601 2.206-10.214 1.853-6.483 4.159-14.552 4.427-22.18.314-8.949-2.255-15.111-7.854-18.839-4.906-3.207-11.979-2.974-21.018.692l-.096.039a.323.323 0 0 1-.237 0 .297.297 0 0 1-.167-.167.28.28 0 0 1-.023-.118.295.295 0 0 1 .093-.217.307.307 0 0 1 .101-.065l.096-.039c1.498-.608 5.007-2.03 9.044-2.662 5.058-.791 9.28-.109 12.548 2.027 3.08 2.051 5.313 4.89 6.637 8.439 1.137 3.049 1.639 6.726 1.492 10.931-.271 7.702-2.588 15.811-4.45 22.326-1.273 4.452-2.284 7.99-2.192 9.872 6.579 5.401 20.442 12.365 26.838 14.1a.306.306 0 1 1-.162.59l-.008-.002c-1.984-.536-3.378-.044-4.517 1.594-1.085 1.561-1.839 4.002-2.711 6.829-1.756 5.693-3.942 12.779-10.239 17.672a.31.31 0 0 1-.189.065Z" fill="#0A103D"/><path d="M245.37 112.251c-.009.038-.02.076-.031.114a6.568 6.568 0 0 1-.056.186l-.026.081c-.98 2.9-4.018 4.141-4.185 4.207-3.623 1.417-7.28-.71-8.913-1.66-.719-.419-1.88-1.165-3.396-2.777a20.526 20.526 0 0 1-.326-.354c-1.196-1.326-2.593-3.179-4.157-5.799-4.853-8.135-3.815-10.477-8.197-17.939-1.115-1.896-3.264-4.188-5.254-5.61-1.576-1.128-2.785-1.58-2.762-2.271 0 0-6.582 1.738-2.754-1.087-.528.045-4.94.136.547-2.2-.586-.153-4.696-1.064-.857-1.634 13.989-.267 24.618 13.04 32.803 21.335a4.091 4.091 0 0 0 3.406 1.19c.007-.002.013-.002.02-.002.84 2.221 2.094 5.541 3.581 9.482.748 1.983.942 3.286.557 4.738Z" fill="#fff"/><path d="M238.522 117.613c-2.785 0-5.283-1.454-6.519-2.173-.761-.443-1.948-1.218-3.466-2.832l-.03-.032a23.23 23.23 0 0 1-.3-.327c-1.378-1.528-2.789-3.496-4.192-5.847-2.518-4.221-3.467-6.912-4.385-9.514-.877-2.488-1.705-4.838-3.813-8.427-1.088-1.85-3.213-4.118-5.168-5.516a25.28 25.28 0 0 0-1.297-.857c-.767-.483-1.33-.837-1.522-1.287-.348.084-.941.22-1.557.322-1.481.246-2.202.167-2.411-.264-.156-.32.016-.695.57-1.201-.663-.031-1.466-.171-1.588-.655-.096-.382.113-.865 2.091-1.787-1.381-.386-1.881-.703-1.86-1.134.021-.435.549-.681 1.883-.88a.27.27 0 0 1 .039-.003c12.377-.238 22.064 9.943 29.847 18.122 1.112 1.168 2.161 2.27 3.182 3.305a3.82 3.82 0 0 0 3.172 1.098.312.312 0 0 1 .322.197c.841 2.221 2.094 5.541 3.581 9.482.801 2.123.955 3.457.568 4.92a2.678 2.678 0 0 1-.03.112l-.003.01c-.019.066-.038.132-.059.198l-.028.083c-1.03 3.052-4.227 4.341-4.363 4.395a7.266 7.266 0 0 1-2.664.492ZM208.067 80.12a.31.31 0 0 1 .288.196c.014.038.021.079.02.12-.01.306.571.672 1.308 1.135.393.248.84.53 1.327.877 2.017 1.443 4.213 3.789 5.339 5.705 2.138 3.64 3.015 6.127 3.863 8.533.908 2.574 1.847 5.236 4.333 9.404 1.383 2.317 2.77 4.252 4.122 5.751.097.109.196.216.296.322l.029.031c1.459 1.552 2.595 2.295 3.323 2.718 1.544.899 5.159 3.002 8.645 1.639.124-.049 3.064-1.234 4.005-4.019l.026-.08c.018-.056.035-.114.052-.174l.003-.009c.008-.031.017-.061.024-.092l.002-.007c.352-1.326.204-2.56-.548-4.552-1.165-3.088-2.331-6.176-3.498-9.263a4.442 4.442 0 0 1-3.44-1.3c-1.025-1.039-2.076-2.144-3.19-3.313-7.613-8-17.067-17.934-28.978-17.934-.13 0-.259 0-.389.003-.801.12-1.136.24-1.272.31.169.12.65.342 2.014.681l.167.042a.306.306 0 0 1 .043.577c-2.097.893-2.462 1.317-2.525 1.433.221.166 1.25.23 1.831.18a.31.31 0 0 1 .315.197.308.308 0 0 1-.105.354c-.847.625-1.025.917-1.062 1.01.332.167 1.946-.04 3.553-.464a.31.31 0 0 1 .079-.01Z" fill="#0A103D"/><path d="M261.766 85.544c-.37 6.967-.697 13.937-.979 20.909l-3.16 9.911c-11.685 5.087-16.977-7.2-17.111-18.615 7.371.038 12.502-12.326 21.25-12.205Z" fill="#9763F6"/><path d="M264.476 67.126c-.218.089-.467.158-.798.066-.771-.216-1.251-.955-1.901-1.731a2.427 2.427 0 0 1-.077-.098c.979 1.056 1.818 1.216 2.42 1.221.036 0 .137.373.356.542Z" fill="#5B2448"/><path d="M300.076 102.69c-1.885-4.337-6.422-4.882-7.799-10.352-.478-1.897-.319-4.426-.796-7.35-.244-1.49-.398-2.766-2.388-5.057-4.671-5.38-11.484-4.767-12.973-10.115-1.512-4.268-.239-7.745-3.853-12.73-3.647-5.028-12.085-3.731-14.608-3.323-5.385-4.835-11.088 4.401-3.968 6.781.063.022.128.042.193.063 1.653.507 3.969.33 5.206.019.09-.022.18-.047.268-.075.612 1.018 1.595 3.811 2.342 4.813.978 1.055 1.818 1.216 2.419 1.22.036 0 .874.273 1.16.412 0 0 .102-.038.001 0 .979.478.828 3.107.785 3.85-1.062 9.223 4.212 17.522 4.537 17.974 7.693 10.71-3.669 24.891 2.579 29.881 5.235 4.182 14.742 1.795 21.961-2.34 4.138-2.371 8.197-6.164 4.934-13.671Z" fill="#0A103D"/><path d="M275.333 82.546c.031 1.16-.755 1.879-.868 1.98-1.854.953-6.263 3.893-7.916 4.648-1.406.517-3.509 1.227-4.822.165-.638-.658-.321-1.575-.272-3.054-.047-4.332-1.692-7.285-3.858-11.092-7.87 1.333-7.106-2.88-6.328-8.338-.553-.397-1.157-1.472-.342-1.755.379-.142.762-.31 1.026-.626.817-1.186 1.088-2.655 1.739-3.927 1.673.583 4.11.405 5.399.082 1.384 3.275 2.412 5.701 5.028 5.958.036 0 .138.373.357.542.395.258 1.524-.579 2.404-.45 2.912-.032 3.649 3.272.298 5.015.319 5.164 2.619 12.418 7.303 9.022.123.11.823.761.852 1.83Z" fill="#fff"/><path d="M263.489 90.194c-.704 0-1.391-.163-1.957-.62a.209.209 0 0 1-.027-.025c-.574-.592-.509-1.333-.426-2.272.026-.297.055-.634.068-.998-.048-4.24-1.657-7.138-3.713-10.752-2.907.466-4.766.196-5.842-.843-1.542-1.49-1.141-4.293-.676-7.54l.023-.163c-.418-.37-.781-.995-.708-1.495.047-.32.257-.56.593-.678.307-.115.66-.262.883-.522.455-.664.73-1.417 1.021-2.214.203-.554.413-1.128.689-1.666a.309.309 0 0 1 .376-.15c1.683.585 4.096.355 5.222.073a.31.31 0 0 1 .36.178c1.356 3.209 2.336 5.528 4.765 5.772.194.01.269.174.32.283.039.084.11.237.189.31.1.024.462-.108.703-.196.481-.175 1.025-.373 1.548-.305h.021c1.366 0 2.426.713 2.709 1.826.257 1.015-.156 2.567-2.132 3.67.265 3.75 1.529 8.17 3.726 9.195.91.424 1.944.224 3.075-.595a.31.31 0 0 1 .388.02c.216.194.923.915.954 2.048.032 1.226-.735 2.006-.97 2.216a.328.328 0 0 1-.064.044c-.84.431-2.196 1.267-3.631 2.151-1.665 1.026-3.387 2.087-4.299 2.504a.184.184 0 0 1-.022.009c-.788.29-2.001.735-3.166.735Zm-1.553-1.083c1.228.973 3.346.2 4.494-.222.881-.405 2.579-1.451 4.221-2.463 1.426-.878 2.773-1.708 3.636-2.156.177-.166.762-.786.738-1.719a2.284 2.284 0 0 0-.581-1.438c-1.245.831-2.415 1-3.482.502-2.475-1.155-3.839-5.807-4.092-9.905a.303.303 0 0 1 .164-.29c1.812-.942 2.209-2.244 1.998-3.073-.216-.854-1.041-1.38-2.149-1.364a.31.31 0 0 1-.048-.004c-.375-.055-.851.119-1.27.272-.503.183-.937.34-1.258.131a.52.52 0 0 1-.021-.014c-.181-.14-.292-.35-.362-.498-2.613-.35-3.704-2.786-5.017-5.888-1.213.255-3.393.42-5.055-.065-.206.44-.377.908-.544 1.364-.293.802-.597 1.632-1.101 2.363a.255.255 0 0 1-.017.022c-.319.382-.763.57-1.155.717-.154.054-.184.124-.194.19-.039.272.262.783.609 1.031a.303.303 0 0 1 .124.291l-.047.335c-.442 3.081-.823 5.742.495 7.015.936.904 2.742 1.114 5.523.643a.309.309 0 0 1 .32.151c2.066 3.63 3.85 6.766 3.899 11.24l-.001.013c-.012.383-.043.731-.07 1.038-.082.936-.107 1.409.243 1.78Zm2.165-22.221h.02-.02Z" fill="#0A103D"/><path d="m267.167 71.371-.048.018c-.521.195-1.055.356-1.598.483a.254.254 0 0 0-.189.303.255.255 0 0 0 .305.187 13.789 13.789 0 0 0 1.664-.5l.049-.018-.183-.473Z" fill="#0A103D"/><path d="M258.057 53.962c2.878-1.53-1.696-7.155-3.39-6.84-1.425.265-.084 8.687 3.39 6.84Z" fill="#fff"/><path d="M257.091 54.533c-.445 0-.872-.151-1.266-.453-1.588-1.219-2.312-4.783-1.926-6.375.158-.65.474-.839.711-.883 1.36-.253 3.73 2.285 4.442 4.293.512 1.447.211 2.554-.85 3.118-.377.2-.75.3-1.111.3Zm-2.27-7.118a.516.516 0 0 0-.097.009c-.045.008-.149.107-.226.424-.342 1.41.313 4.68 1.704 5.747.521.4 1.081.432 1.709.098.782-.416.97-1.215.559-2.375-.668-1.885-2.734-3.903-3.649-3.903Z" fill="#0A103D"/><path d="M261.8 65.91c-3.373-4.198-4.555-10.064-4.141-12.48 0 0 .711-.792 3.22-.89.105 2.029.181 8.636 4.4 14.459-1.363.663-2.487.145-3.479-1.09Z" fill="#fff"/><path d="M264.126 67.591c-.908 0-1.767-.499-2.567-1.493-3.388-4.216-4.636-10.199-4.204-12.722a.312.312 0 0 1 .074-.153c.082-.09.872-.892 3.438-.992a.31.31 0 0 1 .32.29l.017.366c.105 2.323.385 8.494 4.325 13.93a.317.317 0 0 1 .053.122.31.31 0 0 1-.063.25.317.317 0 0 1-.104.082c-.439.214-.869.32-1.289.32Zm-2.085-1.875c.891 1.108 1.778 1.479 2.765 1.145-3.835-5.505-4.112-11.618-4.218-13.946l-.002-.057c-1.726.114-2.445.57-2.639.723-.363 2.47.862 8.113 4.094 12.135Z" fill="#0A103D"/><path d="M259.942 52.875c.264-.786-.064-1.602-.732-1.824-.668-.22-1.424.237-1.688 1.022-.264.786.064 1.602.732 1.824.668.221 1.424-.236 1.688-1.022Z" fill="#fff"/><path d="M258.6 54.256c-.156 0-.309-.025-.457-.076-.825-.282-1.233-1.278-.909-2.22.171-.495.52-.901.958-1.114a1.476 1.476 0 0 1 1.128-.083c.825.282 1.233 1.278.909 2.22-.171.495-.52.902-.958 1.114a1.534 1.534 0 0 1-.672.159h.001Zm.263-2.957a.925.925 0 0 0-.4.097c-.292.142-.528.42-.645.762-.215.623.021 1.271.526 1.444.264.09.503.02.656-.054.293-.142.528-.42.646-.763.214-.623-.022-1.27-.527-1.443a.784.784 0 0 0-.256-.043Z" fill="#0A103D"/><path d="M259.6 53.823c-1.535-3.019 5.73-5.083 6.984-3.805 1.055 1.075-5.131 7.449-6.984 3.805Z" fill="#fff"/><path d="M261.313 55.243c-.875 0-1.56-.441-1.988-1.281-.563-1.108-.155-2.227 1.148-3.15 1.805-1.28 5.332-2.026 6.332-1.008.174.177.327.524.071 1.17-.629 1.58-3.374 4.172-5.442 4.266-.04.002-.081.003-.121.003Zm-1.437-1.557c.338.666.839.976 1.53.943 1.819-.083 4.338-2.476 4.896-3.88.13-.326.1-.478.062-.517-.651-.662-3.731-.2-5.533 1.077-.726.515-1.48 1.345-.955 2.377Zm-.861 24.178a34.55 34.55 0 0 0-1.657-2.937 7.709 7.709 0 0 0 2.019-.655c.973-.474 1.472-.978 1.719-.809.3.206-.065 1.209-.181 1.527-.262.713-.781 1.768-1.9 2.874Zm-1.378-14.673c.948.648 1.249 1.716.877 2.127-.372.411-1.412.173-2.223-.637-.834-.833-1.23-1.771-.877-2.127.366-.369 1.283-.006 2.223.637Zm-4.959 7.061c.201.082.421.109.636.078.214-.025.42-.098.602-.214.088-.06.168-.13.238-.209.22-.241.335-.558.322-.884v-.008a.165.165 0 0 1 .134-.17.168.168 0 0 1 .19.105c.101.29.093.606-.024.89a1.485 1.485 0 0 1-.23.395 1.609 1.609 0 0 1-.338.31 1.623 1.623 0 0 1-1.314.199 1.072 1.072 0 0 1-.405-.22.163.163 0 0 1-.054-.101.17.17 0 0 1 .025-.112.17.17 0 0 1 .208-.062l.009.004h.001Zm3.083-4.25c-.36-.333-1.242-1.108-1.883-2.12a.304.304 0 0 0-.419-.095l-.003.002c-.367.233-.893.713-.367 1.346.646.78 2.124 1.309 2.624 1.124a.153.153 0 0 0 .096-.116.156.156 0 0 0-.005-.077.156.156 0 0 0-.043-.065Zm11.74 2.699a3.182 3.182 0 0 0-1.283-.05c-.673.1-1.66.45-2.536 1.543a.236.236 0 0 0-.052.163.24.24 0 0 0 .081.162.241.241 0 0 0 .343-.03c1.481-1.847 3.239-1.357 3.313-1.335a.238.238 0 0 0 .305-.251.244.244 0 0 0-.171-.202Z" fill="#0A103D"/><path d="M295.359 121.474c-7.506-6.049-35.88 9.921-45.112 3.676 5.649-6.514 10.354-26.586 10.781-37.18 1.993 2.004 5.061-.524 6.835-2.536v-.001a42.069 42.069 0 0 0 1.643-2.113c3.813.761 7.189.942 11.002 1.702 3.528 11.766 9.125 30.474 14.851 36.452Z" fill="#9763F6"/><path d="M261.028 87.969c-.51 4.845-.92 10.213-1.555 15.115a643.46 643.46 0 0 1-1.722 12.323l-.006.044.042.013c.131.04.258.08.382.12l.112.035.009-.059a632.13 632.13 0 0 0 1.734-12.405c.426-3.295.827-6.594 1.201-9.895.178-1.58.29-3.524.428-4.822a2.638 2.638 0 0 1-.625-.47Z" fill="#fff"/><path d="M261.693 116.725c8.38 4.733 14.796 4.408 17.82 3.952 1.237-.187 7.456-1.125 7.869-3.772.301-1.925-2.613-3.83-3.075-4.132-7.162-4.681-19.81 2.335-22.614 3.952Z" fill="#0A103D"/><path d="M279.147 130.932c-6.569 6.717-20.582 6.153-38.758-4.337-1.678-.877-6.847-4.119-12.24-3.604-3.561.34-7.395 2.26-10.278 3.548-2.882 1.288-2.744-.05.293-2.531l-.058.035c-.705.417-7.085 4.055-5.016.844-4.488 1.648 1.808-4.425 2.733-5.092-1.333.597-6.152 2.18-2.764-.856 14.446-11.255 34.148-7.095 48.634-2.211.269-2.143.501-5.766 2.352-11.406 15.945-.66 25.696 14.333 15.102 25.61Z" fill="#fff"/><path d="M266.874 135.651c-.899 0-1.827-.044-2.782-.133-6.9-.641-15.147-3.634-23.853-8.658-.174-.091-.382-.206-.623-.338-2.172-1.195-6.693-3.683-11.438-3.229-3.081.294-6.418 1.813-9.1 3.033-.359.164-.72.327-1.08.489-1.372.613-2.143.687-2.425.235-.245-.39.081-.995.643-1.641-.206.102-.413.202-.622.3-2.199 1.021-2.777.87-3.054.587-.228-.234-.198-.565-.072-.898-.526.125-1.011.123-1.212-.251-.185-.344-.154-1.005 1.749-3.076.453-.491.92-.967 1.401-1.429-.225.07-.455.136-.679.194-1.19.306-1.829.278-2.073-.092-.279-.424.08-1.032 1.199-2.035l.016-.013c3.448-2.687 7.406-4.65 11.765-5.835 3.867-1.052 8.152-1.52 12.736-1.388 7.04.2 14.915 1.785 24.063 4.842l.06-.525c.253-2.238.636-5.621 2.259-10.566a.313.313 0 0 1 .28-.211c4.209-.173 8.208.73 11.565 2.613 3.189 1.789 5.615 4.333 7.015 7.358 1.173 2.533 1.543 5.294 1.071 7.985-.513 2.922-1.963 5.671-4.31 8.169l-.005.005c-2.906 2.971-7.19 4.508-12.494 4.508Zm-37.569-13.023c4.505 0 8.722 2.32 10.61 3.358.24.133.448.247.617.335l.012.007c8.63 4.981 16.793 7.948 23.605 8.581 6.401.594 11.511-.855 14.775-4.191 4.382-4.666 5.523-10.308 3.128-15.479-2.833-6.12-9.797-9.88-17.78-9.622-1.548 4.775-1.92 8.058-2.167 10.241-.037.327-.071.629-.106.905a.3.3 0 0 1-.27.266.296.296 0 0 1-.135-.014c-21.397-7.214-37.208-6.509-48.336 2.156-.903.81-1.048 1.146-1.071 1.24.384.168 2.319-.364 3.51-.897a.312.312 0 0 1 .221-.013.305.305 0 0 1 .086.539c-.345.249-1.484 1.298-2.481 2.376-1.646 1.778-1.724 2.335-1.722 2.432.063.02.331.061 1.182-.251a.313.313 0 0 1 .347.095.306.306 0 0 1 .019.357c-.368.573-.367.78-.361.823.063.029.496.149 2.413-.75 1.313-.615 2.534-1.338 2.546-1.345l.063-.037a.318.318 0 0 1 .222-.032.307.307 0 0 1 .237.34.301.301 0 0 1-.109.194c-1.835 1.499-2.246 2.276-2.258 2.475.09.024.476.061 1.643-.46.346-.155.705-.319 1.077-.487 2.723-1.24 6.112-2.782 9.297-3.087.397-.037.793-.055 1.186-.055Z" fill="#0A103D"/><path d="M287.382 116.189c-2.426-5.601-14.297 3.496-25.689-1.887 1.756-11.33 1.687-18.025 6.423-29.818.23-.604.698-1.76 1.809-2.784 4.447-4.104 9.914-1.567 11.445 6.193 1.492 8.92 3.253 19.925 6.012 28.296Z" fill="#9763F6"/><path d="M287.328 116.07c-2.927-5.846-4.35-18.098-5.682-27.257-.422-1.401-.461-2.09-1.06-3.674 1.482 8.336 2.852 23.19 5.762 29.759.575.41.98 1.172.98 1.172Zm-20.446-29.604c-.324.88-.616 1.858-.916 2.909a72.888 72.888 0 0 0-1.24 5.104c-.985 4.726-1.684 9.915-2.245 14.083l-.007.048c-.272 2.031-.595 4.077-.814 5.691l.596.257c.132-.786.211-1.804.382-3.03.131-.948.26-1.897.387-2.846.691-5.136 1.55-11.528 2.892-16.965.222-.9.451-1.75.681-2.528.414-1.4.92-2.976 1.312-4.189l-1.028 1.466Zm20.715 83.886c-1.366-1.026-2.163-1.872-2.731-2.42l2.731 2.42Z" fill="#fff"/><path d="M287.596 170.657a.307.307 0 0 1-.185-.062 22.74 22.74 0 0 1-2.472-2.163c-.103-.101-.198-.195-.288-.281a.303.303 0 0 1-.004-.431.312.312 0 0 1 .434-.008l.292.286a22.282 22.282 0 0 0 2.409 2.109.303.303 0 0 1 .107.342.31.31 0 0 1-.293.208Zm-79.529-89.923a.306.306 0 0 1-.308-.305.774.774 0 0 1 .322-.634c.596-.457 2.047-.402 3.361-.229-2.209-.95-4.433-1.794-5.664-2.129a.307.307 0 0 1-.215-.376.31.31 0 0 1 .379-.214c1.702.463 5.258 1.876 8.095 3.215a.305.305 0 0 1 .157.382.308.308 0 0 1-.369.19c-1.555-.411-4.679-.882-5.368-.355-.068.053-.082.097-.082.148a.308.308 0 0 1-.307.307h-.001Z" fill="#0A103D"/><path d="M213.904 80.644a.306.306 0 0 1-.115-.023c-1.302-.525-4.748-1.254-8.452-.976a.309.309 0 0 1-.331-.282.307.307 0 0 1 .284-.328c3.81-.286 7.377.473 8.731 1.019a.303.303 0 0 1 .186.342.308.308 0 0 1-.303.248Zm51.737 38.167a.311.311 0 0 1-.18-.058c-.818-.583-2.118-1.167-3.864-1.736a.33.33 0 0 1-.105-.059.309.309 0 0 1-.092-.327.301.301 0 0 1 .06-.104.314.314 0 0 1 .329-.092c1.831.597 3.15 1.193 4.032 1.821a.305.305 0 0 1 .001.496.31.31 0 0 1-.181.059Zm-49.817 1.288a.304.304 0 0 1-.291-.408.303.303 0 0 1 .118-.151c1.064-.712 2.277-1.278 3.002-1.616.184-.086.339-.158.455-.216a.31.31 0 0 1 .45.251.304.304 0 0 1-.174.297c-.12.059-.28.134-.469.222-.709.33-1.895.883-2.919 1.569a.31.31 0 0 1-.172.052Zm-2.734 5.092a.307.307 0 0 1-.241-.497c1.896-2.357 5.73-4.271 6.99-4.9.182-.091.326-.163.387-.198a.31.31 0 0 1 .418.116.304.304 0 0 1-.112.416c-.076.043-.211.11-.416.213-1.23.614-4.973 2.483-6.785 4.735a.31.31 0 0 1-.241.115Zm5.075-.878a.308.308 0 0 1-.292-.405.307.307 0 0 1 .115-.153c1.111-.767 2.373-1.36 2.98-1.645l.226-.107a.308.308 0 0 1 .422.375.307.307 0 0 1-.153.175l-.232.11c-.591.278-1.822.857-2.89 1.595a.308.308 0 0 1-.176.055Z" fill="#0A103D"/></g><path d="M134 214c8.817 0 16 7.407 16 16.5s-7.183 16.5-16 16.5-16-7.363-16-16.5 7.183-16.5 16-16.5Z" fill="#0A103D"/><defs><clipPath id="a"><path fill="#fff" transform="translate(202.828 46.805)" d="M0 0h126.172v200.372H0z"/></clipPath></defs></svg>