<svg width="337" height="239" fill="none" xmlns="http://www.w3.org/2000/svg"><path d="M336.525 238.657H.474a.436.436 0 0 1-.335-.169.64.64 0 0 1-.139-.406c0-.152.05-.298.139-.405a.436.436 0 0 1 .335-.169h336.051c.126 0 .247.06.336.168a.642.642 0 0 1 .139.406c0 .153-.05.299-.139.407a.44.44 0 0 1-.336.168Z" fill="#C7C7C7"/><path d="M181.117 198H29.883a5.848 5.848 0 0 1-4.158-1.75A6.02 6.02 0 0 1 24 192.032V5.968a6.02 6.02 0 0 1 1.725-4.218A5.848 5.848 0 0 1 29.883 0h151.234a5.847 5.847 0 0 1 4.158 1.75A6.02 6.02 0 0 1 187 5.968v186.064a6.02 6.02 0 0 1-1.725 4.218 5.848 5.848 0 0 1-4.158 1.75ZM29.883.702a5.16 5.16 0 0 0-3.669 1.544 5.31 5.31 0 0 0-1.522 3.722v186.064a5.311 5.311 0 0 0 1.522 3.722 5.162 5.162 0 0 0 3.67 1.544h151.233a5.163 5.163 0 0 0 3.669-1.544 5.313 5.313 0 0 0 1.522-3.722V5.968a5.313 5.313 0 0 0-1.522-3.722 5.16 5.16 0 0 0-3.669-1.544H29.883Z" fill="#474C6D"/><path d="M186 14H25v1h161v-1Z" fill="#474C6D"/><path d="M163.426 62h-42.852c-3.078 0-5.574 2.531-5.574 5.654v35.692c0 3.123 2.496 5.654 5.574 5.654h42.852c3.078 0 5.574-2.531 5.574-5.654V67.654c0-3.123-2.496-5.654-5.574-5.654ZM90.426 62H47.574C44.496 62 42 64.531 42 67.654v35.692c0 3.123 2.496 5.654 5.574 5.654h42.852c3.078 0 5.574-2.531 5.574-5.654V67.654C96 64.531 93.504 62 90.426 62ZM89.426 128H46.574c-3.078 0-5.574 2.531-5.574 5.654v35.692c0 3.123 2.496 5.654 5.574 5.654h42.852c3.078 0 5.574-2.531 5.574-5.654v-35.692c0-3.123-2.496-5.654-5.574-5.654Z" fill="#F2F2F2"/><path d="M54.88 76.294c.715 0 1.294-.29 1.294-.647 0-.357-.58-.647-1.294-.647-.715 0-1.294.29-1.294.647 0 .357.58.647 1.294.647Z" fill="#6C63FF"/><g opacity=".2"><path d="M55.28 75c.274.11.45.258.496.419.046.161-.042.324-.247.46-.205.135-.514.233-.87.277-.357.044-.738.03-1.073-.039.165.066.36.115.572.145.213.03.437.039.658.027a3.04 3.04 0 0 0 .624-.096c.19-.051.352-.12.475-.202a.579.579 0 0 0 .24-.27.319.319 0 0 0-.039-.29.794.794 0 0 0-.31-.255A2.058 2.058 0 0 0 55.28 75Z" fill="#0A103D"/><path d="M55.28 75c.274.11.45.258.496.419.046.161-.042.324-.247.46-.205.135-.514.233-.87.277-.357.044-.738.03-1.073-.039.165.066.36.115.572.145.213.03.437.039.658.027a3.04 3.04 0 0 0 .624-.096c.19-.051.352-.12.475-.202a.579.579 0 0 0 .24-.27.319.319 0 0 0-.039-.29.794.794 0 0 0-.31-.255A2.058 2.058 0 0 0 55.28 75Z" fill="#000" fill-opacity=".2"/><path d="M55.28 75c.274.11.45.258.496.419.046.161-.042.324-.247.46-.205.135-.514.233-.87.277-.357.044-.738.03-1.073-.039.165.066.36.115.572.145.213.03.437.039.658.027a3.04 3.04 0 0 0 .624-.096c.19-.051.352-.12.475-.202a.579.579 0 0 0 .24-.27.319.319 0 0 0-.039-.29.794.794 0 0 0-.31-.255A2.058 2.058 0 0 0 55.28 75Z" fill="#000" fill-opacity=".2"/></g><path d="M83.354 77.591c1.43 0 2.588-.29 2.588-.647 0-.357-1.159-.647-2.588-.647-1.43 0-2.588.29-2.588.647 0 .357 1.158.647 2.588.647Z" fill="#474C6D"/><g opacity=".2"><path d="M83.59 76.297c-.08 0-.16.001-.238.003 1.185.033 2.11.309 2.11.644s-.925.61-2.11.644c.078.002.158.003.239.003 1.297 0 2.349-.29 2.349-.647 0-.357-1.052-.647-2.35-.647Z" fill="#0A103D"/><path d="M83.59 76.297c-.08 0-.16.001-.238.003 1.185.033 2.11.309 2.11.644s-.925.61-2.11.644c.078.002.158.003.239.003 1.297 0 2.349-.29 2.349-.647 0-.357-1.052-.647-2.35-.647Z" fill="#000" fill-opacity=".2"/><path d="M83.59 76.297c-.08 0-.16.001-.238.003 1.185.033 2.11.309 2.11.644s-.925.61-2.11.644c.078.002.158.003.239.003 1.297 0 2.349-.29 2.349-.647 0-.357-1.052-.647-2.35-.647Z" fill="#000" fill-opacity=".2"/></g><path d="M86.957 76.883H73.206v-1.586a.307.307 0 0 0-.082-.21.27.27 0 0 0-.197-.087h-7.619a.27.27 0 0 0-.197.087.307.307 0 0 0-.081.21v1.586h-7.99v-.991a.307.307 0 0 0-.082-.21.27.27 0 0 0-.197-.087h-4.089a.27.27 0 0 0-.197.087.307.307 0 0 0-.081.21v.99h-1.115a.263.263 0 0 0-.198.088.3.3 0 0 0-.081.21v19.523a.315.315 0 0 0 .081.21.277.277 0 0 0 .198.087h35.678a.263.263 0 0 0 .197-.087.299.299 0 0 0 .081-.21V77.18a.315.315 0 0 0-.081-.21.278.278 0 0 0-.197-.087Z" fill="#474C6D"/><g opacity=".2"><path d="M86.957 94.642H51.279a.33.33 0 0 1-.107-.017.287.287 0 0 1-.09-.05.23.23 0 0 1-.06-.074.193.193 0 0 1-.022-.087v1.066c0 .03.007.06.021.087a.23.23 0 0 0 .06.074.29.29 0 0 0 .091.05c.034.011.07.017.107.017h35.678a.335.335 0 0 0 .106-.017.29.29 0 0 0 .09-.05.23.23 0 0 0 .061-.074.193.193 0 0 0 .021-.087v-1.066c0 .03-.007.06-.02.087a.23.23 0 0 1-.061.075.287.287 0 0 1-.09.05.33.33 0 0 1-.107.016Z" fill="#0A103D"/><path d="M86.957 94.642H51.279a.33.33 0 0 1-.107-.017.287.287 0 0 1-.09-.05.23.23 0 0 1-.06-.074.193.193 0 0 1-.022-.087v1.066c0 .03.007.06.021.087a.23.23 0 0 0 .06.074.29.29 0 0 0 .091.05c.034.011.07.017.107.017h35.678a.335.335 0 0 0 .106-.017.29.29 0 0 0 .09-.05.23.23 0 0 0 .061-.074.193.193 0 0 0 .021-.087v-1.066c0 .03-.007.06-.02.087a.23.23 0 0 1-.061.075.287.287 0 0 1-.09.05.33.33 0 0 1-.107.016Z" fill="#000" fill-opacity=".2"/><path d="M86.957 94.642H51.279a.33.33 0 0 1-.107-.017.287.287 0 0 1-.09-.05.23.23 0 0 1-.06-.074.193.193 0 0 1-.022-.087v1.066c0 .03.007.06.021.087a.23.23 0 0 0 .06.074.29.29 0 0 0 .091.05c.034.011.07.017.107.017h35.678a.335.335 0 0 0 .106-.017.29.29 0 0 0 .09-.05.23.23 0 0 0 .061-.074.193.193 0 0 0 .021-.087v-1.066c0 .03-.007.06-.02.087a.23.23 0 0 1-.061.075.287.287 0 0 1-.09.05.33.33 0 0 1-.107.016Z" fill="#000" fill-opacity=".2"/></g><g opacity=".2"><path d="M87.235 85.352H51v3.882h36.235v-3.882Z" fill="#0A103D"/><path d="M87.235 85.352H51v3.882h36.235v-3.882Z" fill="#000" fill-opacity=".2"/><path d="M87.235 85.352H51v3.882h36.235v-3.882Z" fill="#000" fill-opacity=".2"/></g><g opacity=".2"><path d="M87.235 84.059H51v3.882h36.235v-3.882Z" fill="#0A103D"/><path d="M87.235 84.059H51v3.882h36.235v-3.882Z" fill="#000" fill-opacity=".2"/><path d="M87.235 84.059H51v3.882h36.235v-3.882Z" fill="#000" fill-opacity=".2"/></g><path d="M87.235 85.352H51v2.588h36.235v-2.588Z" fill="#CBB1FB"/><path d="M69.116 94.412a7.765 7.765 0 1 0 0-15.53 7.765 7.765 0 0 0 0 15.53Z" fill="#CBB1FB"/><g opacity=".2"><path d="M75.128 81.469a8.132 8.132 0 0 1 .876 5.681 7.92 7.92 0 0 1-3.082 4.79 7.452 7.452 0 0 1-5.408 1.36 7.583 7.583 0 0 1-4.866-2.793 7.816 7.816 0 0 0 2.106 2.398 7.523 7.523 0 0 0 2.86 1.324 7.4 7.4 0 0 0 3.132.026 7.515 7.515 0 0 0 2.88-1.275 7.804 7.804 0 0 0 2.143-2.363 8.076 8.076 0 0 0 1.046-3.053 8.159 8.159 0 0 0-.226-3.23 7.993 7.993 0 0 0-1.461-2.865Z" fill="#0A103D"/><path d="M75.128 81.469a8.132 8.132 0 0 1 .876 5.681 7.92 7.92 0 0 1-3.082 4.79 7.452 7.452 0 0 1-5.408 1.36 7.583 7.583 0 0 1-4.866-2.793 7.816 7.816 0 0 0 2.106 2.398 7.523 7.523 0 0 0 2.86 1.324 7.4 7.4 0 0 0 3.132.026 7.515 7.515 0 0 0 2.88-1.275 7.804 7.804 0 0 0 2.143-2.363 8.076 8.076 0 0 0 1.046-3.053 8.159 8.159 0 0 0-.226-3.23 7.993 7.993 0 0 0-1.461-2.865Z" fill="#000" fill-opacity=".2"/><path d="M75.128 81.469a8.132 8.132 0 0 1 .876 5.681 7.92 7.92 0 0 1-3.082 4.79 7.452 7.452 0 0 1-5.408 1.36 7.583 7.583 0 0 1-4.866-2.793 7.816 7.816 0 0 0 2.106 2.398 7.523 7.523 0 0 0 2.86 1.324 7.4 7.4 0 0 0 3.132.026 7.515 7.515 0 0 0 2.88-1.275 7.804 7.804 0 0 0 2.143-2.363 8.076 8.076 0 0 0 1.046-3.053 8.159 8.159 0 0 0-.226-3.23 7.993 7.993 0 0 0-1.461-2.865Z" fill="#000" fill-opacity=".2"/></g><path d="M69.114 91.822a5.176 5.176 0 1 0 0-10.353 5.176 5.176 0 0 0 0 10.353Z" fill="#474C6D"/><path d="M73 86.647a3.857 3.857 0 0 1-.735 2.271 3.88 3.88 0 1 1-5.419-5.418A3.882 3.882 0 0 1 73 86.648Z" fill="#fff"/><g opacity=".2"><path d="M72.954 85.555a4.364 4.364 0 0 0-1.575-2.79 4.46 4.46 0 0 1 .32 4.05 4.295 4.295 0 0 1-.454.827 4.262 4.262 0 0 1-1.238 1.177 4.09 4.09 0 0 1-3.266.478 4.162 4.162 0 0 1-1.507-.775c.37.598.876 1.093 1.474 1.443a4.107 4.107 0 0 0 3.943.116 4.247 4.247 0 0 0 1.551-1.353c.181-.257.334-.534.455-.826.308-.74.41-1.552.297-2.347Z" fill="#0A103D"/><path d="M72.954 85.555a4.364 4.364 0 0 0-1.575-2.79 4.46 4.46 0 0 1 .32 4.05 4.295 4.295 0 0 1-.454.827 4.262 4.262 0 0 1-1.238 1.177 4.09 4.09 0 0 1-3.266.478 4.162 4.162 0 0 1-1.507-.775c.37.598.876 1.093 1.474 1.443a4.107 4.107 0 0 0 3.943.116 4.247 4.247 0 0 0 1.551-1.353c.181-.257.334-.534.455-.826.308-.74.41-1.552.297-2.347Z" fill="#000" fill-opacity=".2"/><path d="M72.954 85.555a4.364 4.364 0 0 0-1.575-2.79 4.46 4.46 0 0 1 .32 4.05 4.295 4.295 0 0 1-.454.827 4.262 4.262 0 0 1-1.238 1.177 4.09 4.09 0 0 1-3.266.478 4.162 4.162 0 0 1-1.507-.775c.37.598.876 1.093 1.474 1.443a4.107 4.107 0 0 0 3.943.116 4.247 4.247 0 0 0 1.551-1.353c.181-.257.334-.534.455-.826.308-.74.41-1.552.297-2.347Z" fill="#000" fill-opacity=".2"/></g><path d="M101.475 150.976a.564.564 0 0 0-.363.235.585.585 0 0 0-.094.427l3.855 22.499c.026.15.109.283.231.37a.553.553 0 0 0 .419.095l3.754-.665a.563.563 0 0 0 .362-.235.58.58 0 0 0 .095-.427l-3.855-22.5a.574.574 0 0 0-.231-.369.554.554 0 0 0-.419-.096l-3.754.666ZM132.702 145.499a.565.565 0 0 0-.363.235.581.581 0 0 0-.094.427l3.855 22.5a.573.573 0 0 0 .23.369.556.556 0 0 0 .42.096l3.753-.666a.56.56 0 0 0 .363-.234.577.577 0 0 0 .094-.427l-3.855-22.5a.571.571 0 0 0-.23-.37.556.556 0 0 0-.42-.095l-3.753.665ZM147.213 124.484l-29.166 2.844 23.642-.089 5.336-1.945.188-.81Z" fill="#474C6D"/><path d="m141.777 126.83 5.336-1.945.032-.138.266-.026-.188.81-5.336 1.945-23.692-.203 6.946-.38 16.636-.063Z" fill="#CBB1FB"/><path d="m81.963 136-29.166 2.844 23.642-.089 5.336-1.946.188-.809Z" fill="#474C6D"/><path d="m76.082 138.498 5.335-1.945.032-.138.267-.026-.188.81-5.336 1.945-23.692-.203 6.946-.38 16.636-.063Z" fill="#CBB1FB"/><path d="m154.01 135.362-2.415.539-20.655 13.527-1.09 1.314-3.455 4.163-12.697 2.253-4.415-2.767-1.678-1.053-22.97-5.448-1.941.123 5.813-4.249.034-.006c1.201-1.645 13.477-4.942 28.64-7.632 15.163-2.69 27.811-3.814 29.488-2.679l.14-.025 7.201 1.94Z" fill="#474C6D"/><path d="M88.399 143.942a1.245 1.245 0 0 0 0-.414l-.876-5.114a1.232 1.232 0 0 0-.496-.795 1.19 1.19 0 0 0-.903-.206l-.483.086a2.986 2.986 0 0 0 .065-3.272 2.916 2.916 0 0 0-1.275-1.114 2.854 2.854 0 0 0-1.668-.207c-.564.1-1.086.368-1.5.769a2.966 2.966 0 0 0-.83 1.487 3 3 0 0 0 .12 1.706 2.942 2.942 0 0 0 1.03 1.351l-.484.086a1.192 1.192 0 0 0-.78.504 1.238 1.238 0 0 0-.203.919l.876 5.113c.036.21.125.406.258.57-.348.128-.696.261-1.041.405a1.01 1.01 0 0 0-.494.451c-.11.203-.148.438-.109.666l.209 1.215c.045.267.193.504.41.659a.983.983 0 0 0 .749.17l11.18-1.983-.516-3.015a25.364 25.364 0 0 0-3.239-.037ZM154.586 132.63a27.762 27.762 0 0 0-1.115-.023c.071-.2.089-.415.053-.624l-.876-5.114a1.245 1.245 0 0 0-.495-.795 1.196 1.196 0 0 0-.903-.205l-.483.085a2.987 2.987 0 0 0 .065-3.272 2.921 2.921 0 0 0-1.275-1.114 2.854 2.854 0 0 0-1.668-.207c-.564.1-1.086.368-1.501.769a2.97 2.97 0 0 0-.83 1.487 3.008 3.008 0 0 0 .12 1.706 2.944 2.944 0 0 0 1.03 1.351l-.483.086a1.206 1.206 0 0 0-.781.504 1.24 1.24 0 0 0-.202.919l.876 5.114c.024.137.07.268.137.39a25.43 25.43 0 0 0-3.035 1.15l.517 3.015 11.18-1.984a.996.996 0 0 0 .648-.418 1.03 1.03 0 0 0 .167-.761l-.208-1.215a1.03 1.03 0 0 0-.323-.59.996.996 0 0 0-.615-.254Z" fill="#474C6D"/><path d="m149.715 124.046 28.392-7.366-22.277 8.057-5.668.007-.447-.698ZM122.122 154.664l-4.464.792c-.166.03-.324.092-.466.183a1.293 1.293 0 0 0-.36.351 1.31 1.31 0 0 0-.214.971l.17.99c.044.26.166.5.348.689.182.188.416.315.671.364a1.296 1.296 0 0 0-.148.854l.049.284a1.263 1.263 0 0 0 .706.937l.647 3.78 4.867-.863-.647-3.78c.143-.145.25-.323.312-.518a1.3 1.3 0 0 0 .04-.607l-.049-.284a1.275 1.275 0 0 0-.422-.753c.223-.134.401-.334.51-.574.109-.24.143-.507.099-.767l-.17-.991a1.315 1.315 0 0 0-.524-.84 1.264 1.264 0 0 0-.955-.218Z" fill="#474C6D"/><path d="M116.906 164.687a.765.765 0 0 0-.492.318.788.788 0 0 0-.127.578l1.047 6.112a.777.777 0 0 0 .312.5c.165.118.37.165.569.13l9.074-1.61a.757.757 0 0 0 .491-.318.786.786 0 0 0 .128-.578l-1.047-6.112a.775.775 0 0 0-.313-.5.75.75 0 0 0-.568-.129l-9.074 1.609ZM129.876 150.75l-3.455 4.163-12.696 2.253-4.414-2.768 3.802-.674.022-.873c.006-.256.1-.503.264-.697.165-.195.391-.325.639-.369l10.617-1.884c.248-.044.504.001.724.128.219.126.389.326.48.565l.311.814 3.706-.658Z" fill="#CBB1FB"/><path d="M122.589 170.715c1.636-.29 2.732-1.875 2.446-3.54-.285-1.665-1.843-2.78-3.479-2.49-1.636.291-2.731 1.876-2.446 3.541.286 1.665 1.843 2.779 3.479 2.489Z" fill="#474C6D"/><path d="m155.691 133.789-75.972 13.477.084.493 75.972-13.477-.084-.493Z" fill="#E6E6E6"/><path d="m155.941 124.347-5.668.007-.076-.119-.26.068.447.697 5.668-.007 22.227-8.348-6.663 2.033-15.675 5.669ZM84.505 135.613l28.391-7.367-22.277 8.057-5.668.007-.446-.697Z" fill="#CBB1FB"/><path d="m90.925 135.866-5.668.007-.076-.118-.26.067.447.698 5.668-.007 22.227-8.349-6.662 2.033-15.676 5.669Z" fill="#6C63FF"/><path d="m123.699 150.979-8.465 1.501.296 1.723 8.464-1.501-.295-1.723Z" fill="#E6E6E6"/><path d="M35.5 10a2.5 2.5 0 1 0 0-5 2.5 2.5 0 0 0 0 5ZM44.5 10a2.5 2.5 0 1 0 0-5 2.5 2.5 0 0 0 0 5ZM52.5 10a2.5 2.5 0 1 0 0-5 2.5 2.5 0 0 0 0 5Z" fill="#474C6D"/><g clip-path="url(#a)"><path d="M249.554 75.84c1.441-.56 3.56-.546 5.344.69 2.537-5.758 10.249-3.761 10.778.915 5.918-3.53 11.845 3.411 9.028 8.151-1.035 1.74-2.842 5.422-2.39 8.64-2.792.894-8.508 6.845-8.508 6.845s-10.205-12.956-14.564-14.88c-5.441-2.403-3.488-8.884.312-10.36Z" fill="#0A103D"/><path d="M249.554 75.84c1.441-.56 3.56-.546 5.344.69 2.537-5.758 10.249-3.761 10.778.915 5.918-3.53 11.845 3.411 9.028 8.151-1.035 1.74-2.842 5.422-2.39 8.64-2.792.894-8.508 6.845-8.508 6.845s-10.205-12.956-14.564-14.88c-5.441-2.403-3.488-8.884.312-10.36Z" fill="#000" fill-opacity=".2"/><path d="M249.554 75.84c1.441-.56 3.56-.546 5.344.69 2.537-5.758 10.249-3.761 10.778.915 5.918-3.53 11.845 3.411 9.028 8.151-1.035 1.74-2.842 5.422-2.39 8.64-2.792.894-8.508 6.845-8.508 6.845s-10.205-12.956-14.564-14.88c-5.441-2.403-3.488-8.884.312-10.36Z" fill="#000" fill-opacity=".2"/><path d="M244.33 108.432c4.104 3.179 10.162 2.65 10.162 2.65a56.72 56.72 0 0 1-1.235 10.814c1.487 9.369 18.561 5.394 20.591-3.242 0 0-2.332-4.932-4.41-13.039 3.21.029 8.557-2.598 8.397-7.02-.092-2.523-2.393-4.906-5.021-4.537-2.552.359-3.693 1.705-5.977 3.59-2.121 1.75-2.495.54-3.374-2.074-.78-2.322-2.165-4.456-3.247-5.68-2.443-2.766-7.544-3.56-10.974-3.695a59.837 59.837 0 0 1-1.604 7.683c-1.211 4.432-4.292 6.054-5.144 9.858-.364 1.629.26 3.471 1.836 4.692Z" fill="#fff"/><path d="M260.672 127.557c5.465 0 12.184-3.528 13.433-8.841a.267.267 0 0 0-.019-.176c-.023-.048-2.282-4.871-4.308-12.665 1.976-.092 4.755-1.103 6.553-2.97 1.213-1.261 1.824-2.754 1.767-4.32-.05-1.392-.742-2.784-1.851-3.724-1.014-.86-2.246-1.238-3.469-1.067-2.201.31-3.396 1.335-5.05 2.754-.333.285-.678.581-1.058.894-.722.597-1.238.839-1.576.74-.527-.152-.872-1.178-1.349-2.599l-.032-.094c-.816-2.426-2.24-4.572-3.3-5.771-2.764-3.13-8.725-3.689-11.16-3.784a.262.262 0 0 0-.271.228 59.836 59.836 0 0 1-1.597 7.649c-.6 2.196-1.669 3.688-2.703 5.13-1.034 1.444-2.011 2.808-2.444 4.741-.408 1.822.333 3.723 1.932 4.962 3.672 2.843 8.775 2.787 10.054 2.723-.074 3.463-.475 6.892-1.224 10.475a.264.264 0 0 0-.003.097c.542 3.413 3.17 5.457 7.211 5.609.153.006.308.008.464.009Zm12.899-8.874c-.585 2.351-2.385 4.521-5.077 6.117-2.546 1.51-5.56 2.318-8.266 2.216-1.76-.066-3.29-.527-4.425-1.333-1.243-.882-2.009-2.154-2.278-3.78.771-3.698 1.174-7.237 1.231-10.816a.25.25 0 0 0-.021-.108.261.261 0 0 0-.265-.161c-.059.005-6.007.48-9.979-2.597-1.435-1.111-2.101-2.806-1.739-4.422.409-1.827 1.355-3.147 2.357-4.546 1.061-1.48 2.158-3.012 2.784-5.3a60.47 60.47 0 0 0 1.576-7.477c2.497.119 8.006.714 10.551 3.596 1.026 1.16 2.404 3.237 3.194 5.588l.032.094c.548 1.632.911 2.71 1.702 2.94.531.154 1.165-.105 2.056-.84.383-.316.73-.613 1.065-.9 1.645-1.412 2.732-2.344 4.782-2.632 1.073-.151 2.159.185 3.058.947.996.844 1.618 2.091 1.663 3.336.052 1.437-.492 2.758-1.619 3.928-1.8 1.871-4.639 2.833-6.512 2.816a.267.267 0 0 0-.21.103.259.259 0 0 0-.05.109.274.274 0 0 0 .003.121c1.622 6.328 3.553 11.213 4.387 13.001Z" fill="#0A103D"/><path d="M260.672 127.557c5.465 0 12.184-3.528 13.433-8.841a.267.267 0 0 0-.019-.176c-.023-.048-2.282-4.871-4.308-12.665 1.976-.092 4.755-1.103 6.553-2.97 1.213-1.261 1.824-2.754 1.767-4.32-.05-1.392-.742-2.784-1.851-3.724-1.014-.86-2.246-1.238-3.469-1.067-2.201.31-3.396 1.335-5.05 2.754-.333.285-.678.581-1.058.894-.722.597-1.238.839-1.576.74-.527-.152-.872-1.178-1.349-2.599l-.032-.094c-.816-2.426-2.24-4.572-3.3-5.771-2.764-3.13-8.725-3.689-11.16-3.784a.262.262 0 0 0-.271.228 59.836 59.836 0 0 1-1.597 7.649c-.6 2.196-1.669 3.688-2.703 5.13-1.034 1.444-2.011 2.808-2.444 4.741-.408 1.822.333 3.723 1.932 4.962 3.672 2.843 8.775 2.787 10.054 2.723-.074 3.463-.475 6.892-1.224 10.475a.264.264 0 0 0-.003.097c.542 3.413 3.17 5.457 7.211 5.609.153.006.308.008.464.009Zm12.899-8.874c-.585 2.351-2.385 4.521-5.077 6.117-2.546 1.51-5.56 2.318-8.266 2.216-1.76-.066-3.29-.527-4.425-1.333-1.243-.882-2.009-2.154-2.278-3.78.771-3.698 1.174-7.237 1.231-10.816a.25.25 0 0 0-.021-.108.261.261 0 0 0-.265-.161c-.059.005-6.007.48-9.979-2.597-1.435-1.111-2.101-2.806-1.739-4.422.409-1.827 1.355-3.147 2.357-4.546 1.061-1.48 2.158-3.012 2.784-5.3a60.47 60.47 0 0 0 1.576-7.477c2.497.119 8.006.714 10.551 3.596 1.026 1.16 2.404 3.237 3.194 5.588l.032.094c.548 1.632.911 2.71 1.702 2.94.531.154 1.165-.105 2.056-.84.383-.316.73-.613 1.065-.9 1.645-1.412 2.732-2.344 4.782-2.632 1.073-.151 2.159.185 3.058.947.996.844 1.618 2.091 1.663 3.336.052 1.437-.492 2.758-1.619 3.928-1.8 1.871-4.639 2.833-6.512 2.816a.267.267 0 0 0-.21.103.259.259 0 0 0-.05.109.274.274 0 0 0 .003.121c1.622 6.328 3.553 11.213 4.387 13.001Z" fill="#000" fill-opacity=".2"/><path d="M260.672 127.557c5.465 0 12.184-3.528 13.433-8.841a.267.267 0 0 0-.019-.176c-.023-.048-2.282-4.871-4.308-12.665 1.976-.092 4.755-1.103 6.553-2.97 1.213-1.261 1.824-2.754 1.767-4.32-.05-1.392-.742-2.784-1.851-3.724-1.014-.86-2.246-1.238-3.469-1.067-2.201.31-3.396 1.335-5.05 2.754-.333.285-.678.581-1.058.894-.722.597-1.238.839-1.576.74-.527-.152-.872-1.178-1.349-2.599l-.032-.094c-.816-2.426-2.24-4.572-3.3-5.771-2.764-3.13-8.725-3.689-11.16-3.784a.262.262 0 0 0-.271.228 59.836 59.836 0 0 1-1.597 7.649c-.6 2.196-1.669 3.688-2.703 5.13-1.034 1.444-2.011 2.808-2.444 4.741-.408 1.822.333 3.723 1.932 4.962 3.672 2.843 8.775 2.787 10.054 2.723-.074 3.463-.475 6.892-1.224 10.475a.264.264 0 0 0-.003.097c.542 3.413 3.17 5.457 7.211 5.609.153.006.308.008.464.009Zm12.899-8.874c-.585 2.351-2.385 4.521-5.077 6.117-2.546 1.51-5.56 2.318-8.266 2.216-1.76-.066-3.29-.527-4.425-1.333-1.243-.882-2.009-2.154-2.278-3.78.771-3.698 1.174-7.237 1.231-10.816a.25.25 0 0 0-.021-.108.261.261 0 0 0-.265-.161c-.059.005-6.007.48-9.979-2.597-1.435-1.111-2.101-2.806-1.739-4.422.409-1.827 1.355-3.147 2.357-4.546 1.061-1.48 2.158-3.012 2.784-5.3a60.47 60.47 0 0 0 1.576-7.477c2.497.119 8.006.714 10.551 3.596 1.026 1.16 2.404 3.237 3.194 5.588l.032.094c.548 1.632.911 2.71 1.702 2.94.531.154 1.165-.105 2.056-.84.383-.316.73-.613 1.065-.9 1.645-1.412 2.732-2.344 4.782-2.632 1.073-.151 2.159.185 3.058.947.996.844 1.618 2.091 1.663 3.336.052 1.437-.492 2.758-1.619 3.928-1.8 1.871-4.639 2.833-6.512 2.816a.267.267 0 0 0-.21.103.259.259 0 0 0-.05.109.274.274 0 0 0 .003.121c1.622 6.328 3.553 11.213 4.387 13.001Z" fill="#000" fill-opacity=".2"/><path d="M257.395 80.039a.275.275 0 0 1-.325-.22c-.306-1.582-1.277-2.64-2.16-3.299.08-.175.166-.348.259-.516.985.712 2.092 1.889 2.445 3.707a.278.278 0 0 1-.219.328Z" fill="#fff"/><path d="M260.342 92.344c.251-1.667-.731-3.39-2.198-4.145-.934-.618-4.164-.355-3.193 1.155.508.79 1.473 1.066 2.162 1.66.501.39 1.124.987 1.619 1.45.475.445 1.477.71 1.61-.12Zm-1.629 2.056c-.715-.263-2.444-.852-3.971-1.931a.465.465 0 0 0-.655.115l-.003.005c-.383.561-.843 1.577.292 2.178 1.393.739 3.823.609 4.426.037a.25.25 0 0 0 .066-.227.248.248 0 0 0-.155-.177Zm-9.854-2.923c.734.203 1.294.225 2.683.253a.47.47 0 0 1 .333.143.48.48 0 0 1 .136.339c-.008.681-.429 1.31-1.511 1.276-1.205-.04-1.823-1.032-1.944-1.732a.251.251 0 0 1 .076-.224.241.241 0 0 1 .227-.055Zm18.122 13.517a.277.277 0 0 1 .361-.152h.001a6.828 6.828 0 0 0 2.155.517l.148.573a7.347 7.347 0 0 1-2.515-.573.274.274 0 0 1-.15-.151.283.283 0 0 1 0-.214Zm-14.936-16.438c-.774.297-1.634.117-2.443.245-.186-.003-.478.059-.811.132.171-.907.322-1.817.451-2.73.526.02 1.092.057 1.681.113.044.016.088.032.131.05.773.274 2.172 1.738.991 2.19Zm8.668 19.88c.711.576.107 5.949-6.293 6.909l-.2.027c.253-2.641.272-4.556.272-4.556s3.964-.624 6.221-2.38Zm7.828-6.94a.275.275 0 0 1-.297-.256.277.277 0 0 1 .026-.142c2.088-4.447 6.052-3.598 6.092-3.59a.271.271 0 0 1 .176.124c.02.03.033.066.039.102a.272.272 0 0 1-.047.21.274.274 0 0 1-.29.11c-.145-.032-3.576-.749-5.47 3.283a.27.27 0 0 1-.229.159Z" fill="#0A103D"/><path d="M260.342 92.344c.251-1.667-.731-3.39-2.198-4.145-.934-.618-4.164-.355-3.193 1.155.508.79 1.473 1.066 2.162 1.66.501.39 1.124.987 1.619 1.45.475.445 1.477.71 1.61-.12Zm-1.629 2.056c-.715-.263-2.444-.852-3.971-1.931a.465.465 0 0 0-.655.115l-.003.005c-.383.561-.843 1.577.292 2.178 1.393.739 3.823.609 4.426.037a.25.25 0 0 0 .066-.227.248.248 0 0 0-.155-.177Zm-9.854-2.923c.734.203 1.294.225 2.683.253a.47.47 0 0 1 .333.143.48.48 0 0 1 .136.339c-.008.681-.429 1.31-1.511 1.276-1.205-.04-1.823-1.032-1.944-1.732a.251.251 0 0 1 .076-.224.241.241 0 0 1 .227-.055Zm18.122 13.517a.277.277 0 0 1 .361-.152h.001a6.828 6.828 0 0 0 2.155.517l.148.573a7.347 7.347 0 0 1-2.515-.573.274.274 0 0 1-.15-.151.283.283 0 0 1 0-.214Zm-14.936-16.438c-.774.297-1.634.117-2.443.245-.186-.003-.478.059-.811.132.171-.907.322-1.817.451-2.73.526.02 1.092.057 1.681.113.044.016.088.032.131.05.773.274 2.172 1.738.991 2.19Zm8.668 19.88c.711.576.107 5.949-6.293 6.909l-.2.027c.253-2.641.272-4.556.272-4.556s3.964-.624 6.221-2.38Zm7.828-6.94a.275.275 0 0 1-.297-.256.277.277 0 0 1 .026-.142c2.088-4.447 6.052-3.598 6.092-3.59a.271.271 0 0 1 .176.124c.02.03.033.066.039.102a.272.272 0 0 1-.047.21.274.274 0 0 1-.29.11c-.145-.032-3.576-.749-5.47 3.283a.27.27 0 0 1-.229.159Z" fill="#000" fill-opacity=".2"/><path d="M260.342 92.344c.251-1.667-.731-3.39-2.198-4.145-.934-.618-4.164-.355-3.193 1.155.508.79 1.473 1.066 2.162 1.66.501.39 1.124.987 1.619 1.45.475.445 1.477.71 1.61-.12Zm-1.629 2.056c-.715-.263-2.444-.852-3.971-1.931a.465.465 0 0 0-.655.115l-.003.005c-.383.561-.843 1.577.292 2.178 1.393.739 3.823.609 4.426.037a.25.25 0 0 0 .066-.227.248.248 0 0 0-.155-.177Zm-9.854-2.923c.734.203 1.294.225 2.683.253a.47.47 0 0 1 .333.143.48.48 0 0 1 .136.339c-.008.681-.429 1.31-1.511 1.276-1.205-.04-1.823-1.032-1.944-1.732a.251.251 0 0 1 .076-.224.241.241 0 0 1 .227-.055Zm18.122 13.517a.277.277 0 0 1 .361-.152h.001a6.828 6.828 0 0 0 2.155.517l.148.573a7.347 7.347 0 0 1-2.515-.573.274.274 0 0 1-.15-.151.283.283 0 0 1 0-.214Zm-14.936-16.438c-.774.297-1.634.117-2.443.245-.186-.003-.478.059-.811.132.171-.907.322-1.817.451-2.73.526.02 1.092.057 1.681.113.044.016.088.032.131.05.773.274 2.172 1.738.991 2.19Zm8.668 19.88c.711.576.107 5.949-6.293 6.909l-.2.027c.253-2.641.272-4.556.272-4.556s3.964-.624 6.221-2.38Zm7.828-6.94a.275.275 0 0 1-.297-.256.277.277 0 0 1 .026-.142c2.088-4.447 6.052-3.598 6.092-3.59a.271.271 0 0 1 .176.124c.02.03.033.066.039.102a.272.272 0 0 1-.047.21.274.274 0 0 1-.29.11c-.145-.032-3.576-.749-5.47 3.283a.27.27 0 0 1-.229.159Z" fill="#000" fill-opacity=".2"/><path d="M250.248 97.182a.218.218 0 0 1-.167-.058c-.663-.618-.952-1.092-.936-1.537.021-.565.528-.97 1.115-1.44 1.317-1.056 1.203-1.91 1.202-1.918a.226.226 0 0 1 .181-.257.219.219 0 0 1 .255.178c.008.045.183 1.109-1.363 2.347-.581.465-.935.772-.948 1.107-.011.294.249.684.794 1.19a.227.227 0 0 1 .059.238.224.224 0 0 1-.192.15Zm-.875 3.919c.301.253.664.417 1.05.477.381.07.773.051 1.146-.056.183-.057.357-.138.519-.24a2.254 2.254 0 0 0 1.01-1.382l.003-.013a.282.282 0 0 1 .557.053c.019.55-.16 1.089-.504 1.517a2.684 2.684 0 0 1-1.715 1.006 2.67 2.67 0 0 1-1.204-.091 2.576 2.576 0 0 1-.727-.333 1.926 1.926 0 0 1-.573-.585.286.286 0 0 1-.037-.194.286.286 0 0 1 .096-.173.282.282 0 0 1 .368.003l.011.011Z" fill="#0A103D"/><path d="M250.248 97.182a.218.218 0 0 1-.167-.058c-.663-.618-.952-1.092-.936-1.537.021-.565.528-.97 1.115-1.44 1.317-1.056 1.203-1.91 1.202-1.918a.226.226 0 0 1 .181-.257.219.219 0 0 1 .255.178c.008.045.183 1.109-1.363 2.347-.581.465-.935.772-.948 1.107-.011.294.249.684.794 1.19a.227.227 0 0 1 .059.238.224.224 0 0 1-.192.15Zm-.875 3.919c.301.253.664.417 1.05.477.381.07.773.051 1.146-.056.183-.057.357-.138.519-.24a2.254 2.254 0 0 0 1.01-1.382l.003-.013a.282.282 0 0 1 .557.053c.019.55-.16 1.089-.504 1.517a2.684 2.684 0 0 1-1.715 1.006 2.67 2.67 0 0 1-1.204-.091 2.576 2.576 0 0 1-.727-.333 1.926 1.926 0 0 1-.573-.585.286.286 0 0 1-.037-.194.286.286 0 0 1 .096-.173.282.282 0 0 1 .368.003l.011.011Z" fill="#000" fill-opacity=".2"/><path d="M250.248 97.182a.218.218 0 0 1-.167-.058c-.663-.618-.952-1.092-.936-1.537.021-.565.528-.97 1.115-1.44 1.317-1.056 1.203-1.91 1.202-1.918a.226.226 0 0 1 .181-.257.219.219 0 0 1 .255.178c.008.045.183 1.109-1.363 2.347-.581.465-.935.772-.948 1.107-.011.294.249.684.794 1.19a.227.227 0 0 1 .059.238.224.224 0 0 1-.192.15Zm-.875 3.919c.301.253.664.417 1.05.477.381.07.773.051 1.146-.056.183-.057.357-.138.519-.24a2.254 2.254 0 0 0 1.01-1.382l.003-.013a.282.282 0 0 1 .557.053c.019.55-.16 1.089-.504 1.517a2.684 2.684 0 0 1-1.715 1.006 2.67 2.67 0 0 1-1.204-.091 2.576 2.576 0 0 1-.727-.333 1.926 1.926 0 0 1-.573-.585.286.286 0 0 1-.037-.194.286.286 0 0 1 .096-.173.282.282 0 0 1 .368.003l.011.011Z" fill="#000" fill-opacity=".2"/><path d="M160.436 197.788c2.969 0 28.662-.138 32.306-.186l.002-.002c5.281-.063 1.145-20.409-1.922-19.201-13.981 5.242-21.036 10.415-30.766 16.095-3.101 2.046-1.649 3.294.38 3.294Z" fill="#fff"/><path d="M160.436 198.055c2.937 0 28.6-.138 32.31-.186l.036-.003c1.185-.033 1.818-.978 2.142-1.77.778-1.902.822-5.422.117-9.417-.661-3.752-1.809-6.919-2.925-8.069-.583-.602-1.078-.581-1.39-.458-11.026 4.133-17.75 8.223-24.868 12.553-1.901 1.156-3.866 2.351-5.934 3.558l-.012.008c-1.01.667-2.155 1.666-1.868 2.64.208.705 1.124 1.144 2.392 1.144Zm32.269-.718c-3.827.049-29.341.185-32.269.185-.979 0-1.755-.314-1.887-.763-.149-.506.451-1.249 1.645-2.038 2.069-1.208 4.035-2.404 5.936-3.56 7.096-4.317 13.799-8.394 24.783-12.512.094-.037.364-.143.827.334 1.03 1.062 2.148 4.192 2.783 7.789.687 3.899.655 7.309-.086 9.121-.393.961-.948 1.432-1.696 1.441a.219.219 0 0 0-.036.003Z" fill="#0A103D"/><path d="M160.436 198.055c2.937 0 28.6-.138 32.31-.186l.036-.003c1.185-.033 1.818-.978 2.142-1.77.778-1.902.822-5.422.117-9.417-.661-3.752-1.809-6.919-2.925-8.069-.583-.602-1.078-.581-1.39-.458-11.026 4.133-17.75 8.223-24.868 12.553-1.901 1.156-3.866 2.351-5.934 3.558l-.012.008c-1.01.667-2.155 1.666-1.868 2.64.208.705 1.124 1.144 2.392 1.144Zm32.269-.718c-3.827.049-29.341.185-32.269.185-.979 0-1.755-.314-1.887-.763-.149-.506.451-1.249 1.645-2.038 2.069-1.208 4.035-2.404 5.936-3.56 7.096-4.317 13.799-8.394 24.783-12.512.094-.037.364-.143.827.334 1.03 1.062 2.148 4.192 2.783 7.789.687 3.899.655 7.309-.086 9.121-.393.961-.948 1.432-1.696 1.441a.219.219 0 0 0-.036.003Z" fill="#000" fill-opacity=".2"/><path d="M160.436 198.055c2.937 0 28.6-.138 32.31-.186l.036-.003c1.185-.033 1.818-.978 2.142-1.77.778-1.902.822-5.422.117-9.417-.661-3.752-1.809-6.919-2.925-8.069-.583-.602-1.078-.581-1.39-.458-11.026 4.133-17.75 8.223-24.868 12.553-1.901 1.156-3.866 2.351-5.934 3.558l-.012.008c-1.01.667-2.155 1.666-1.868 2.64.208.705 1.124 1.144 2.392 1.144Zm32.269-.718c-3.827.049-29.341.185-32.269.185-.979 0-1.755-.314-1.887-.763-.149-.506.451-1.249 1.645-2.038 2.069-1.208 4.035-2.404 5.936-3.56 7.096-4.317 13.799-8.394 24.783-12.512.094-.037.364-.143.827.334 1.03 1.062 2.148 4.192 2.783 7.789.687 3.899.655 7.309-.086 9.121-.393.961-.948 1.432-1.696 1.441a.219.219 0 0 0-.036.003Z" fill="#000" fill-opacity=".2"/><path d="M168.234 198.026a.26.26 0 0 0 .25-.183.27.27 0 0 0-.093-.297c-.494-.369-.429-.649-.407-.742.147-.635 1.404-1.439 3.448-2.207 1.803-.678 4.196-1.316 6.403-1.709a.254.254 0 0 0 .172-.109.28.28 0 0 0 .042-.095.285.285 0 0 0 .002-.105.287.287 0 0 0-.037-.097.27.27 0 0 0-.167-.117.255.255 0 0 0-.103-.001c-2.236.398-4.665 1.046-6.495 1.734-2.31.868-3.581 1.737-3.778 2.584-.076.326-.032.815.607 1.292.045.034.1.052.156.052Z" fill="#0A103D"/><path d="M168.234 198.026a.26.26 0 0 0 .25-.183.27.27 0 0 0-.093-.297c-.494-.369-.429-.649-.407-.742.147-.635 1.404-1.439 3.448-2.207 1.803-.678 4.196-1.316 6.403-1.709a.254.254 0 0 0 .172-.109.28.28 0 0 0 .042-.095.285.285 0 0 0 .002-.105.287.287 0 0 0-.037-.097.27.27 0 0 0-.167-.117.255.255 0 0 0-.103-.001c-2.236.398-4.665 1.046-6.495 1.734-2.31.868-3.581 1.737-3.778 2.584-.076.326-.032.815.607 1.292.045.034.1.052.156.052Z" fill="#000" fill-opacity=".2"/><path d="M168.234 198.026a.26.26 0 0 0 .25-.183.27.27 0 0 0-.093-.297c-.494-.369-.429-.649-.407-.742.147-.635 1.404-1.439 3.448-2.207 1.803-.678 4.196-1.316 6.403-1.709a.254.254 0 0 0 .172-.109.28.28 0 0 0 .042-.095.285.285 0 0 0 .002-.105.287.287 0 0 0-.037-.097.27.27 0 0 0-.167-.117.255.255 0 0 0-.103-.001c-2.236.398-4.665 1.046-6.495 1.734-2.31.868-3.581 1.737-3.778 2.584-.076.326-.032.815.607 1.292.045.034.1.052.156.052Z" fill="#000" fill-opacity=".2"/><path d="M220.271 168.26c-5.793.489-25.735 8.304-32.859 11.476 3.391 4.698 5.833 13.934 5.33 17.866 32.499.131 51.382 2.907 59.044-7.679 7.762-10.723-23.275-22.358-31.515-21.663Z" fill="#fff"/><path d="M222.255 198.293c15.079 0 24.723-1.275 29.744-8.212 1.597-2.207 1.71-4.58.336-7.055-1.102-1.987-3.151-4.005-6.087-6-2.535-1.721-5.733-3.41-9.248-4.884-6.5-2.725-13.388-4.43-16.751-4.146-5.797.489-25.719 8.28-32.943 11.497a.265.265 0 0 0-.152.292c.007.04.022.077.046.109 1.544 2.139 3.033 5.47 4.085 9.137.99 3.456 1.438 6.647 1.196 8.537a.281.281 0 0 0 .009.112c.011.036.03.069.054.098a.27.27 0 0 0 .197.091c5.914.024 11.487.137 16.404.238 4.759.097 9.125.186 13.11.186Zm-1.201-29.797c3.499 0 9.775 1.635 15.744 4.138 7.591 3.182 13.086 7.065 15.078 10.652 1.264 2.277 1.162 4.457-.302 6.481-6.187 8.547-19.824 8.268-42.418 7.807-4.838-.098-10.311-.21-16.12-.237.35-4.043-1.95-12.749-5.221-17.488 7.433-3.282 26.816-10.846 32.478-11.323.253-.02.507-.03.761-.03Z" fill="#0A103D"/><path d="M222.255 198.293c15.079 0 24.723-1.275 29.744-8.212 1.597-2.207 1.71-4.58.336-7.055-1.102-1.987-3.151-4.005-6.087-6-2.535-1.721-5.733-3.41-9.248-4.884-6.5-2.725-13.388-4.43-16.751-4.146-5.797.489-25.719 8.28-32.943 11.497a.265.265 0 0 0-.152.292c.007.04.022.077.046.109 1.544 2.139 3.033 5.47 4.085 9.137.99 3.456 1.438 6.647 1.196 8.537a.281.281 0 0 0 .009.112c.011.036.03.069.054.098a.27.27 0 0 0 .197.091c5.914.024 11.487.137 16.404.238 4.759.097 9.125.186 13.11.186Zm-1.201-29.797c3.499 0 9.775 1.635 15.744 4.138 7.591 3.182 13.086 7.065 15.078 10.652 1.264 2.277 1.162 4.457-.302 6.481-6.187 8.547-19.824 8.268-42.418 7.807-4.838-.098-10.311-.21-16.12-.237.35-4.043-1.95-12.749-5.221-17.488 7.433-3.282 26.816-10.846 32.478-11.323.253-.02.507-.03.761-.03Z" fill="#000" fill-opacity=".2"/><path d="M222.255 198.293c15.079 0 24.723-1.275 29.744-8.212 1.597-2.207 1.71-4.58.336-7.055-1.102-1.987-3.151-4.005-6.087-6-2.535-1.721-5.733-3.41-9.248-4.884-6.5-2.725-13.388-4.43-16.751-4.146-5.797.489-25.719 8.28-32.943 11.497a.265.265 0 0 0-.152.292c.007.04.022.077.046.109 1.544 2.139 3.033 5.47 4.085 9.137.99 3.456 1.438 6.647 1.196 8.537a.281.281 0 0 0 .009.112c.011.036.03.069.054.098a.27.27 0 0 0 .197.091c5.914.024 11.487.137 16.404.238 4.759.097 9.125.186 13.11.186Zm-1.201-29.797c3.499 0 9.775 1.635 15.744 4.138 7.591 3.182 13.086 7.065 15.078 10.652 1.264 2.277 1.162 4.457-.302 6.481-6.187 8.547-19.824 8.268-42.418 7.807-4.838-.098-10.311-.21-16.12-.237.35-4.043-1.95-12.749-5.221-17.488 7.433-3.282 26.816-10.846 32.478-11.323.253-.02.507-.03.761-.03Z" fill="#000" fill-opacity=".2"/><path d="M199.995 197.939a.263.263 0 0 0 .262-.244c.651-7.671-1.921-15.582-6.712-20.647a.258.258 0 0 0-.183-.079.265.265 0 0 0-.267.258.268.268 0 0 0 .069.189c4.69 4.957 7.207 12.711 6.568 20.234a.269.269 0 0 0 .263.289Z" fill="#0A103D"/><path d="M199.995 197.939a.263.263 0 0 0 .262-.244c.651-7.671-1.921-15.582-6.712-20.647a.258.258 0 0 0-.183-.079.265.265 0 0 0-.267.258.268.268 0 0 0 .069.189c4.69 4.957 7.207 12.711 6.568 20.234a.269.269 0 0 0 .263.289Z" fill="#000" fill-opacity=".2"/><path d="M199.995 197.939a.263.263 0 0 0 .262-.244c.651-7.671-1.921-15.582-6.712-20.647a.258.258 0 0 0-.183-.079.265.265 0 0 0-.267.258.268.268 0 0 0 .069.189c4.69 4.957 7.207 12.711 6.568 20.234a.269.269 0 0 0 .263.289Z" fill="#000" fill-opacity=".2"/><path d="M196.698 195.945a.876.876 0 0 1-.872-.881c0-.486.39-.88.872-.88.481 0 .871.394.871.88 0 .487-.39.881-.871.881Z" fill="#0A103D"/><path d="M196.698 195.945a.876.876 0 0 1-.872-.881c0-.486.39-.88.872-.88.481 0 .871.394.871.88 0 .487-.39.881-.871.881Z" fill="#000" fill-opacity=".2"/><path d="M196.698 195.945a.876.876 0 0 1-.872-.881c0-.486.39-.88.872-.88.481 0 .871.394.871.88 0 .487-.39.881-.871.881Z" fill="#000" fill-opacity=".2"/><path d="M251.786 189.926c7.674-8.462 12.702-65.601-2.345-64.1-13.663 1.363-23.769 20.308-29.171 42.436" fill="#fff"/><path d="M251.786 190.189a.256.256 0 0 0 .106-.023.241.241 0 0 0 .088-.063c3.022-3.332 5.815-14.369 6.95-27.464 1.232-14.204.171-26.316-2.839-32.399-1.673-3.382-3.919-4.957-6.675-4.682-3.348.334-6.61 1.73-9.698 4.148-2.879 2.256-5.632 5.42-8.181 9.404-4.677 7.309-8.662 17.367-11.522 29.085a.266.266 0 0 0 .295.33.237.237 0 0 0 .097-.036.245.245 0 0 0 .076-.071.256.256 0 0 0 .043-.095c2.847-11.662 6.807-21.664 11.453-28.924 2.517-3.934 5.23-7.053 8.062-9.272 3.008-2.356 6.179-3.715 9.427-4.039 2.516-.251 4.586 1.226 6.152 4.39 2.968 5.999 4.009 18.004 2.786 32.115-.53 6.11-1.476 12.129-2.664 16.949-1.246 5.053-2.681 8.581-4.15 10.201a.268.268 0 0 0 .05.403.264.264 0 0 0 .144.043Z" fill="#0A103D"/><path d="M251.786 190.189a.256.256 0 0 0 .106-.023.241.241 0 0 0 .088-.063c3.022-3.332 5.815-14.369 6.95-27.464 1.232-14.204.171-26.316-2.839-32.399-1.673-3.382-3.919-4.957-6.675-4.682-3.348.334-6.61 1.73-9.698 4.148-2.879 2.256-5.632 5.42-8.181 9.404-4.677 7.309-8.662 17.367-11.522 29.085a.266.266 0 0 0 .295.33.237.237 0 0 0 .097-.036.245.245 0 0 0 .076-.071.256.256 0 0 0 .043-.095c2.847-11.662 6.807-21.664 11.453-28.924 2.517-3.934 5.23-7.053 8.062-9.272 3.008-2.356 6.179-3.715 9.427-4.039 2.516-.251 4.586 1.226 6.152 4.39 2.968 5.999 4.009 18.004 2.786 32.115-.53 6.11-1.476 12.129-2.664 16.949-1.246 5.053-2.681 8.581-4.15 10.201a.268.268 0 0 0 .05.403.264.264 0 0 0 .144.043Z" fill="#000" fill-opacity=".2"/><path d="M251.786 190.189a.256.256 0 0 0 .106-.023.241.241 0 0 0 .088-.063c3.022-3.332 5.815-14.369 6.95-27.464 1.232-14.204.171-26.316-2.839-32.399-1.673-3.382-3.919-4.957-6.675-4.682-3.348.334-6.61 1.73-9.698 4.148-2.879 2.256-5.632 5.42-8.181 9.404-4.677 7.309-8.662 17.367-11.522 29.085a.266.266 0 0 0 .295.33.237.237 0 0 0 .097-.036.245.245 0 0 0 .076-.071.256.256 0 0 0 .043-.095c2.847-11.662 6.807-21.664 11.453-28.924 2.517-3.934 5.23-7.053 8.062-9.272 3.008-2.356 6.179-3.715 9.427-4.039 2.516-.251 4.586 1.226 6.152 4.39 2.968 5.999 4.009 18.004 2.786 32.115-.53 6.11-1.476 12.129-2.664 16.949-1.246 5.053-2.681 8.581-4.15 10.201a.268.268 0 0 0 .05.403.264.264 0 0 0 .144.043Z" fill="#000" fill-opacity=".2"/><path d="M230.792 197.751c9.848 3.735 37.451 7.832 57.546 2.431 8.628-2.319.523-66.078-11.134-77.156-.75-.925-2.563-2.935-3.356-4.37-4.102 5.416-14.748 7.974-16.465 7.387-1.936-.662-4.111-4.116-4.111-4.116-1.141.98-2.644 2.195-3.903 3.815-16.418 21.113-20.332 60.199-18.577 72.009Z" fill="#fff"/><path d="M265.832 203.051c7.103 0 15.142-.618 22.574-2.615 1.243-.334 2.197-1.798 2.835-4.35.888-3.555 1.172-9.211.82-16.354-.332-6.749-1.24-14.632-2.557-22.197-3.027-17.383-7.552-30.35-12.107-34.694-.161-.199-.367-.442-.604-.723-.838-.992-2.105-2.492-2.714-3.595a.28.28 0 0 0-.089-.095.262.262 0 0 0-.35.063c-4.061 5.361-14.616 7.829-16.172 7.297-1.825-.625-3.952-3.973-3.973-4.007a.251.251 0 0 0-.079-.08.245.245 0 0 0-.104-.04.253.253 0 0 0-.21.06l-.375.32c-1.079.92-2.423 2.065-3.565 3.533-3.848 4.949-7.251 11.195-10.113 18.565-2.469 6.354-4.501 13.433-6.041 21.04-1.307 6.454-2.214 13.124-2.625 19.286-.365 5.487-.313 10.218.149 13.322a.26.26 0 0 0 .056.128.262.262 0 0 0 .112.082c5.503 2.087 15.317 3.915 25.003 4.658 2.974.228 6.425.396 10.129.396Zm7.985-83.93c.67 1.087 1.759 2.376 2.576 3.343.24.285.448.53.608.728l.023.025c2.315 2.2 4.681 6.783 6.842 13.256 1.963 5.876 3.733 13.191 5.119 21.154 2.781 15.974 3.482 31.377 1.745 38.329-.587 2.35-1.415 3.684-2.459 3.965-11.237 3.02-23.891 2.865-32.528 2.203-9.556-.733-19.226-2.523-24.713-4.571-.804-5.688-.368-18.131 2.494-32.268 1.534-7.576 3.558-14.626 6.015-20.952 2.844-7.321 6.221-13.522 10.038-18.43 1.108-1.426 2.428-2.551 3.489-3.455l.15-.127c.554.827 2.375 3.387 4.083 3.971 1.037.355 4.337-.28 7.512-1.444 2.341-.859 6.552-2.725 9.006-5.727Z" fill="#0A103D"/><path d="M265.832 203.051c7.103 0 15.142-.618 22.574-2.615 1.243-.334 2.197-1.798 2.835-4.35.888-3.555 1.172-9.211.82-16.354-.332-6.749-1.24-14.632-2.557-22.197-3.027-17.383-7.552-30.35-12.107-34.694-.161-.199-.367-.442-.604-.723-.838-.992-2.105-2.492-2.714-3.595a.28.28 0 0 0-.089-.095.262.262 0 0 0-.35.063c-4.061 5.361-14.616 7.829-16.172 7.297-1.825-.625-3.952-3.973-3.973-4.007a.251.251 0 0 0-.079-.08.245.245 0 0 0-.104-.04.253.253 0 0 0-.21.06l-.375.32c-1.079.92-2.423 2.065-3.565 3.533-3.848 4.949-7.251 11.195-10.113 18.565-2.469 6.354-4.501 13.433-6.041 21.04-1.307 6.454-2.214 13.124-2.625 19.286-.365 5.487-.313 10.218.149 13.322a.26.26 0 0 0 .056.128.262.262 0 0 0 .112.082c5.503 2.087 15.317 3.915 25.003 4.658 2.974.228 6.425.396 10.129.396Zm7.985-83.93c.67 1.087 1.759 2.376 2.576 3.343.24.285.448.53.608.728l.023.025c2.315 2.2 4.681 6.783 6.842 13.256 1.963 5.876 3.733 13.191 5.119 21.154 2.781 15.974 3.482 31.377 1.745 38.329-.587 2.35-1.415 3.684-2.459 3.965-11.237 3.02-23.891 2.865-32.528 2.203-9.556-.733-19.226-2.523-24.713-4.571-.804-5.688-.368-18.131 2.494-32.268 1.534-7.576 3.558-14.626 6.015-20.952 2.844-7.321 6.221-13.522 10.038-18.43 1.108-1.426 2.428-2.551 3.489-3.455l.15-.127c.554.827 2.375 3.387 4.083 3.971 1.037.355 4.337-.28 7.512-1.444 2.341-.859 6.552-2.725 9.006-5.727Z" fill="#000" fill-opacity=".2"/><path d="M265.832 203.051c7.103 0 15.142-.618 22.574-2.615 1.243-.334 2.197-1.798 2.835-4.35.888-3.555 1.172-9.211.82-16.354-.332-6.749-1.24-14.632-2.557-22.197-3.027-17.383-7.552-30.35-12.107-34.694-.161-.199-.367-.442-.604-.723-.838-.992-2.105-2.492-2.714-3.595a.28.28 0 0 0-.089-.095.262.262 0 0 0-.35.063c-4.061 5.361-14.616 7.829-16.172 7.297-1.825-.625-3.952-3.973-3.973-4.007a.251.251 0 0 0-.079-.08.245.245 0 0 0-.104-.04.253.253 0 0 0-.21.06l-.375.32c-1.079.92-2.423 2.065-3.565 3.533-3.848 4.949-7.251 11.195-10.113 18.565-2.469 6.354-4.501 13.433-6.041 21.04-1.307 6.454-2.214 13.124-2.625 19.286-.365 5.487-.313 10.218.149 13.322a.26.26 0 0 0 .056.128.262.262 0 0 0 .112.082c5.503 2.087 15.317 3.915 25.003 4.658 2.974.228 6.425.396 10.129.396Zm7.985-83.93c.67 1.087 1.759 2.376 2.576 3.343.24.285.448.53.608.728l.023.025c2.315 2.2 4.681 6.783 6.842 13.256 1.963 5.876 3.733 13.191 5.119 21.154 2.781 15.974 3.482 31.377 1.745 38.329-.587 2.35-1.415 3.684-2.459 3.965-11.237 3.02-23.891 2.865-32.528 2.203-9.556-.733-19.226-2.523-24.713-4.571-.804-5.688-.368-18.131 2.494-32.268 1.534-7.576 3.558-14.626 6.015-20.952 2.844-7.321 6.221-13.522 10.038-18.43 1.108-1.426 2.428-2.551 3.489-3.455l.15-.127c.554.827 2.375 3.387 4.083 3.971 1.037.355 4.337-.28 7.512-1.444 2.341-.859 6.552-2.725 9.006-5.727Z" fill="#000" fill-opacity=".2"/><path d="M241.27 193.277c.114 1.098 4.98 6.515 6.495 6.782 1.884.331 7.343-3.462 7.907-5.141-2.651-30.029.196-46.373.89-56.827-1.359.216-2.794-.222-3.488-.954-2.948 10.347-8.88 27.752-11.804 56.14Z" fill="#CBB1FB"/><path d="M307.027 199.738c9.681-8.059 10.378-25.684 6.523-40.331-8.739-29.933-25.156-41.268-36.691-36.811-8.923 3.447-9.965 26.661-2.106 48.518 5.284 14.696 20.942 38.058 32.274 28.624Z" fill="#fff"/><path d="M301.316 202.183c2.118 0 4.087-.749 5.878-2.24 4.53-3.771 7.445-9.949 8.432-17.868.862-6.922.215-14.998-1.821-22.737-2.743-9.395-6.341-17.355-10.694-23.666-3.922-5.684-8.436-9.909-13.056-12.218-4.608-2.304-9.204-2.687-13.29-1.108-2.244.867-4.043 2.922-5.348 6.109-1.219 2.976-1.968 6.947-2.168 11.483-.413 9.43 1.502 20.826 5.256 31.266 2.189 6.087 5.894 13.013 9.912 18.527 3.391 4.653 8.609 10.525 14.211 12.071.92.254 1.817.381 2.688.381Zm-19.381-80.259c2.552 0 5.215.672 7.887 2.007 4.54 2.27 8.985 6.435 12.857 12.046 4.321 6.263 7.894 14.171 10.618 23.504 2.018 7.668 2.66 15.671 1.806 22.528-.969 7.781-3.82 13.84-8.243 17.523-2.389 1.988-5.112 2.58-8.093 1.757-3.012-.831-7.872-3.566-13.926-11.874-3.989-5.475-7.668-12.351-9.84-18.393-3.732-10.377-5.636-21.698-5.225-31.06.407-9.274 3.023-15.513 7.177-17.118 1.589-.614 3.26-.92 4.982-.92Z" fill="#0A103D"/><path d="M301.316 202.183c2.118 0 4.087-.749 5.878-2.24 4.53-3.771 7.445-9.949 8.432-17.868.862-6.922.215-14.998-1.821-22.737-2.743-9.395-6.341-17.355-10.694-23.666-3.922-5.684-8.436-9.909-13.056-12.218-4.608-2.304-9.204-2.687-13.29-1.108-2.244.867-4.043 2.922-5.348 6.109-1.219 2.976-1.968 6.947-2.168 11.483-.413 9.43 1.502 20.826 5.256 31.266 2.189 6.087 5.894 13.013 9.912 18.527 3.391 4.653 8.609 10.525 14.211 12.071.92.254 1.817.381 2.688.381Zm-19.381-80.259c2.552 0 5.215.672 7.887 2.007 4.54 2.27 8.985 6.435 12.857 12.046 4.321 6.263 7.894 14.171 10.618 23.504 2.018 7.668 2.66 15.671 1.806 22.528-.969 7.781-3.82 13.84-8.243 17.523-2.389 1.988-5.112 2.58-8.093 1.757-3.012-.831-7.872-3.566-13.926-11.874-3.989-5.475-7.668-12.351-9.84-18.393-3.732-10.377-5.636-21.698-5.225-31.06.407-9.274 3.023-15.513 7.177-17.118 1.589-.614 3.26-.92 4.982-.92Z" fill="#000" fill-opacity=".2"/><path d="M301.316 202.183c2.118 0 4.087-.749 5.878-2.24 4.53-3.771 7.445-9.949 8.432-17.868.862-6.922.215-14.998-1.821-22.737-2.743-9.395-6.341-17.355-10.694-23.666-3.922-5.684-8.436-9.909-13.056-12.218-4.608-2.304-9.204-2.687-13.29-1.108-2.244.867-4.043 2.922-5.348 6.109-1.219 2.976-1.968 6.947-2.168 11.483-.413 9.43 1.502 20.826 5.256 31.266 2.189 6.087 5.894 13.013 9.912 18.527 3.391 4.653 8.609 10.525 14.211 12.071.92.254 1.817.381 2.688.381Zm-19.381-80.259c2.552 0 5.215.672 7.887 2.007 4.54 2.27 8.985 6.435 12.857 12.046 4.321 6.263 7.894 14.171 10.618 23.504 2.018 7.668 2.66 15.671 1.806 22.528-.969 7.781-3.82 13.84-8.243 17.523-2.389 1.988-5.112 2.58-8.093 1.757-3.012-.831-7.872-3.566-13.926-11.874-3.989-5.475-7.668-12.351-9.84-18.393-3.732-10.377-5.636-21.698-5.225-31.06.407-9.274 3.023-15.513 7.177-17.118 1.589-.614 3.26-.92 4.982-.92Z" fill="#000" fill-opacity=".2"/><path d="M281.724 172.574c-2.388-.689-4.74-1.191-6.971-1.463-3.93-.479-16.14-2.283-26.47-6.224 0 0-4.041 14.689-8.276 21.265 14.459 11.695 50.2 27.875 67.02 13.583" fill="#fff"/><path d="M289.374 205.608c.723 0 1.434-.018 2.132-.055 6.422-.335 11.701-2.224 15.691-5.613a.284.284 0 0 0 .093-.181.268.268 0 0 0-.061-.195.28.28 0 0 0-.179-.093.25.25 0 0 0-.102.011.274.274 0 0 0-.09.05c-3.9 3.314-9.074 5.161-15.379 5.49-5.531.289-11.848-.582-18.775-2.588-13.83-4.006-26.014-11.267-32.347-16.339 3.84-6.117 7.523-18.812 8.102-20.857 10.963 4.131 23.786 5.836 26.263 6.138 2.17.265 4.502.754 6.93 1.455a.263.263 0 0 0 .322-.184.27.27 0 0 0-.022-.201.263.263 0 0 0-.156-.127c-2.454-.709-4.813-1.204-7.011-1.471-2.487-.303-15.444-2.026-26.409-6.21a.259.259 0 0 0-.296.081.237.237 0 0 0-.05.097c-.041.147-4.08 14.726-8.244 21.192a.273.273 0 0 0-.039.187c.01.066.044.125.095.166 6.317 5.109 18.675 12.517 32.717 16.584 6.11 1.77 11.755 2.663 16.815 2.663Z" fill="#0A103D"/><path d="M289.374 205.608c.723 0 1.434-.018 2.132-.055 6.422-.335 11.701-2.224 15.691-5.613a.284.284 0 0 0 .093-.181.268.268 0 0 0-.061-.195.28.28 0 0 0-.179-.093.25.25 0 0 0-.102.011.274.274 0 0 0-.09.05c-3.9 3.314-9.074 5.161-15.379 5.49-5.531.289-11.848-.582-18.775-2.588-13.83-4.006-26.014-11.267-32.347-16.339 3.84-6.117 7.523-18.812 8.102-20.857 10.963 4.131 23.786 5.836 26.263 6.138 2.17.265 4.502.754 6.93 1.455a.263.263 0 0 0 .322-.184.27.27 0 0 0-.022-.201.263.263 0 0 0-.156-.127c-2.454-.709-4.813-1.204-7.011-1.471-2.487-.303-15.444-2.026-26.409-6.21a.259.259 0 0 0-.296.081.237.237 0 0 0-.05.097c-.041.147-4.08 14.726-8.244 21.192a.273.273 0 0 0-.039.187c.01.066.044.125.095.166 6.317 5.109 18.675 12.517 32.717 16.584 6.11 1.77 11.755 2.663 16.815 2.663Z" fill="#000" fill-opacity=".2"/><path d="M289.374 205.608c.723 0 1.434-.018 2.132-.055 6.422-.335 11.701-2.224 15.691-5.613a.284.284 0 0 0 .093-.181.268.268 0 0 0-.061-.195.28.28 0 0 0-.179-.093.25.25 0 0 0-.102.011.274.274 0 0 0-.09.05c-3.9 3.314-9.074 5.161-15.379 5.49-5.531.289-11.848-.582-18.775-2.588-13.83-4.006-26.014-11.267-32.347-16.339 3.84-6.117 7.523-18.812 8.102-20.857 10.963 4.131 23.786 5.836 26.263 6.138 2.17.265 4.502.754 6.93 1.455a.263.263 0 0 0 .322-.184.27.27 0 0 0-.022-.201.263.263 0 0 0-.156-.127c-2.454-.709-4.813-1.204-7.011-1.471-2.487-.303-15.444-2.026-26.409-6.21a.259.259 0 0 0-.296.081.237.237 0 0 0-.05.097c-.041.147-4.08 14.726-8.244 21.192a.273.273 0 0 0-.039.187c.01.066.044.125.095.166 6.317 5.109 18.675 12.517 32.717 16.584 6.11 1.77 11.755 2.663 16.815 2.663Z" fill="#000" fill-opacity=".2"/><path d="M246.727 191.19a.262.262 0 0 0 .208-.102c4.312-5.557 7.861-15.122 8.831-23.802a.261.261 0 0 0-.055-.197.265.265 0 0 0-.28-.09.266.266 0 0 0-.188.227c-.96 8.591-4.465 18.048-8.723 23.533a.274.274 0 0 0-.029.281.256.256 0 0 0 .097.109c.042.027.09.041.139.041Z" fill="#0A103D"/><path d="M246.727 191.19a.262.262 0 0 0 .208-.102c4.312-5.557 7.861-15.122 8.831-23.802a.261.261 0 0 0-.055-.197.265.265 0 0 0-.28-.09.266.266 0 0 0-.188.227c-.96 8.591-4.465 18.048-8.723 23.533a.274.274 0 0 0-.029.281.256.256 0 0 0 .097.109c.042.027.09.041.139.041Z" fill="#000" fill-opacity=".2"/><path d="M246.727 191.19a.262.262 0 0 0 .208-.102c4.312-5.557 7.861-15.122 8.831-23.802a.261.261 0 0 0-.055-.197.265.265 0 0 0-.28-.09.266.266 0 0 0-.188.227c-.96 8.591-4.465 18.048-8.723 23.533a.274.274 0 0 0-.029.281.256.256 0 0 0 .097.109c.042.027.09.041.139.041Z" fill="#000" fill-opacity=".2"/><path d="M245.461 185.66a.876.876 0 0 1-.872-.881c0-.486.39-.881.872-.881.481 0 .872.395.872.881a.877.877 0 0 1-.872.881Z" fill="#0A103D"/><path d="M245.461 185.66a.876.876 0 0 1-.872-.881c0-.486.39-.881.872-.881.481 0 .872.395.872.881a.877.877 0 0 1-.872.881Z" fill="#000" fill-opacity=".2"/><path d="M245.461 185.66a.876.876 0 0 1-.872-.881c0-.486.39-.881.872-.881.481 0 .872.395.872.881a.877.877 0 0 1-.872.881Z" fill="#000" fill-opacity=".2"/><path d="M255.75 138.19a5.053 5.053 0 0 0 1.533-.241l-.133-.423c-1.583.507-3.286.123-4.237-.956l-.328.296c.755.856 1.925 1.324 3.165 1.324Z" fill="#fff"/><path d="m252.432 131.84.632 4.897c1.074.907 2.28 1.172 3.593.905l2.255-2.16c-.433-1.42-1.382-6.144-1.529-9.439-3.01 2.916-4.951 5.797-4.951 5.797Z" fill="#CBB1FB"/><path d="M261.594 138.657c1.227 0 2.721-.931 4.531-2.813 1.891-1.967 3.686-4.524 4.874-6.216.538-.766.963-1.371 1.156-1.571a.27.27 0 0 0-.007-.375.26.26 0 0 0-.371.004c-.221.23-.635.819-1.207 1.634-2.118 3.016-7.079 10.079-9.798 8.596-1.132-.617-2.032-2.852-2.603-6.461-.44-2.778-.521-5.396-.522-5.422a.268.268 0 0 0-.271-.256.265.265 0 0 0-.256.272c.013.435.35 10.671 3.402 12.336.332.181.689.272 1.072.272Z" fill="#0A103D"/><path d="M261.594 138.657c1.227 0 2.721-.931 4.531-2.813 1.891-1.967 3.686-4.524 4.874-6.216.538-.766.963-1.371 1.156-1.571a.27.27 0 0 0-.007-.375.26.26 0 0 0-.371.004c-.221.23-.635.819-1.207 1.634-2.118 3.016-7.079 10.079-9.798 8.596-1.132-.617-2.032-2.852-2.603-6.461-.44-2.778-.521-5.396-.522-5.422a.268.268 0 0 0-.271-.256.265.265 0 0 0-.256.272c.013.435.35 10.671 3.402 12.336.332.181.689.272 1.072.272Z" fill="#000" fill-opacity=".2"/><path d="M261.594 138.657c1.227 0 2.721-.931 4.531-2.813 1.891-1.967 3.686-4.524 4.874-6.216.538-.766.963-1.371 1.156-1.571a.27.27 0 0 0-.007-.375.26.26 0 0 0-.371.004c-.221.23-.635.819-1.207 1.634-2.118 3.016-7.079 10.079-9.798 8.596-1.132-.617-2.032-2.852-2.603-6.461-.44-2.778-.521-5.396-.522-5.422a.268.268 0 0 0-.271-.256.265.265 0 0 0-.256.272c.013.435.35 10.671 3.402 12.336.332.181.689.272 1.072.272Z" fill="#000" fill-opacity=".2"/><path d="M249.278 134.356c1.421 0 2.86-1.784 4.627-3.975 1.068-1.324 2.279-2.826 3.659-4.144a.27.27 0 0 0-.174-.46.25.25 0 0 0-.101.018.257.257 0 0 0-.087.055c-1.405 1.342-2.627 2.858-3.705 4.195-1.872 2.321-3.351 4.155-4.614 3.71-.059-.021-.565-.303-.186-3.774.202-1.859.561-3.692.564-3.71a.261.261 0 0 0-.207-.312.263.263 0 0 0-.309.208 51.212 51.212 0 0 0-.572 3.753c-.386 3.542.084 4.179.536 4.338.183.065.375.098.569.098Z" fill="#0A103D"/><path d="M249.278 134.356c1.421 0 2.86-1.784 4.627-3.975 1.068-1.324 2.279-2.826 3.659-4.144a.27.27 0 0 0-.174-.46.25.25 0 0 0-.101.018.257.257 0 0 0-.087.055c-1.405 1.342-2.627 2.858-3.705 4.195-1.872 2.321-3.351 4.155-4.614 3.71-.059-.021-.565-.303-.186-3.774.202-1.859.561-3.692.564-3.71a.261.261 0 0 0-.207-.312.263.263 0 0 0-.309.208 51.212 51.212 0 0 0-.572 3.753c-.386 3.542.084 4.179.536 4.338.183.065.375.098.569.098Z" fill="#000" fill-opacity=".2"/><path d="M249.278 134.356c1.421 0 2.86-1.784 4.627-3.975 1.068-1.324 2.279-2.826 3.659-4.144a.27.27 0 0 0-.174-.46.25.25 0 0 0-.101.018.257.257 0 0 0-.087.055c-1.405 1.342-2.627 2.858-3.705 4.195-1.872 2.321-3.351 4.155-4.614 3.71-.059-.021-.565-.303-.186-3.774.202-1.859.561-3.692.564-3.71a.261.261 0 0 0-.207-.312.263.263 0 0 0-.309.208 51.212 51.212 0 0 0-.572 3.753c-.386 3.542.084 4.179.536 4.338.183.065.375.098.569.098Z" fill="#000" fill-opacity=".2"/><path d="M215.34 166.702c4.603 6.583 20.658 17.22 24.667 19.45 3.883-5.427 7.911-17.481 8.276-21.266-.652-.248-15.88-5.994-19.469-10.858-3.419-4.633-3.342-6.666-5.061-7.707-1.847-1.12-3.154 2.851-1.456 6.828-2.535-.648-5.56-4.521-7.318-1.72-.503.802-.242 2.268-.195 2.372v.002c-1.441.609-1.585 2.365-.955 4.236-.994 1.311-.804 2.673.554 4.787-.756 1.16.07 2.608.957 3.876Z" fill="#fff"/><path d="M240.007 186.42a.262.262 0 0 0 .214-.11c3.959-5.534 7.957-17.583 8.325-21.396a.268.268 0 0 0-.17-.275l-.026-.01c-1.62-.615-15.919-6.143-19.325-10.758-1.644-2.229-2.478-3.86-3.087-5.051-.662-1.295-1.099-2.15-2.049-2.725-.569-.345-1.144-.303-1.62.117-.575.508-.943 1.528-1.012 2.798-.063 1.186.143 2.484.586 3.709-.655-.268-1.35-.711-2.025-1.141-1.756-1.118-3.746-2.386-5.061-.289-.445.709-.362 1.848-.274 2.365-1.257.666-1.609 2.263-.947 4.339-.935 1.324-.776 2.745.537 4.84-.675 1.247.146 2.729 1.052 4.025 2.508 3.586 8.245 8.189 12.616 11.418 5.131 3.792 10.188 7.026 12.139 8.111.04.022.084.033.127.033Zm7.992-21.356c-.239 1.98-1.339 5.844-2.781 9.748-2.29 6.201-4.249 9.498-5.289 10.993-4.493-2.553-19.956-12.936-24.374-19.255-.882-1.262-1.608-2.568-.952-3.575a.27.27 0 0 0 .001-.292c-1.307-2.035-1.466-3.292-.566-4.48a.27.27 0 0 0 .04-.248c-.974-2.895.372-3.72.808-3.904a.267.267 0 0 0 .161-.246.239.239 0 0 0-.018-.099c-.067-.22-.234-1.484.172-2.132.965-1.537 2.282-.854 4.336.454.892.569 1.814 1.156 2.695 1.381a.263.263 0 0 0 .326-.218.277.277 0 0 0-.019-.145c-1.27-2.975-.761-5.692.077-6.433.302-.267.63-.287 1.002-.062.822.498 1.21 1.257 1.852 2.513.618 1.208 1.463 2.862 3.133 5.125 1.507 2.043 5.138 4.456 10.792 7.173a120.128 120.128 0 0 0 8.604 3.702Zm-32.975-11.37.004.009-.004-.009Z" fill="#0A103D"/><path d="M240.007 186.42a.262.262 0 0 0 .214-.11c3.959-5.534 7.957-17.583 8.325-21.396a.268.268 0 0 0-.17-.275l-.026-.01c-1.62-.615-15.919-6.143-19.325-10.758-1.644-2.229-2.478-3.86-3.087-5.051-.662-1.295-1.099-2.15-2.049-2.725-.569-.345-1.144-.303-1.62.117-.575.508-.943 1.528-1.012 2.798-.063 1.186.143 2.484.586 3.709-.655-.268-1.35-.711-2.025-1.141-1.756-1.118-3.746-2.386-5.061-.289-.445.709-.362 1.848-.274 2.365-1.257.666-1.609 2.263-.947 4.339-.935 1.324-.776 2.745.537 4.84-.675 1.247.146 2.729 1.052 4.025 2.508 3.586 8.245 8.189 12.616 11.418 5.131 3.792 10.188 7.026 12.139 8.111.04.022.084.033.127.033Zm7.992-21.356c-.239 1.98-1.339 5.844-2.781 9.748-2.29 6.201-4.249 9.498-5.289 10.993-4.493-2.553-19.956-12.936-24.374-19.255-.882-1.262-1.608-2.568-.952-3.575a.27.27 0 0 0 .001-.292c-1.307-2.035-1.466-3.292-.566-4.48a.27.27 0 0 0 .04-.248c-.974-2.895.372-3.72.808-3.904a.267.267 0 0 0 .161-.246.239.239 0 0 0-.018-.099c-.067-.22-.234-1.484.172-2.132.965-1.537 2.282-.854 4.336.454.892.569 1.814 1.156 2.695 1.381a.263.263 0 0 0 .326-.218.277.277 0 0 0-.019-.145c-1.27-2.975-.761-5.692.077-6.433.302-.267.63-.287 1.002-.062.822.498 1.21 1.257 1.852 2.513.618 1.208 1.463 2.862 3.133 5.125 1.507 2.043 5.138 4.456 10.792 7.173a120.128 120.128 0 0 0 8.604 3.702Zm-32.975-11.37.004.009-.004-.009Z" fill="#000" fill-opacity=".2"/><path d="M240.007 186.42a.262.262 0 0 0 .214-.11c3.959-5.534 7.957-17.583 8.325-21.396a.268.268 0 0 0-.17-.275l-.026-.01c-1.62-.615-15.919-6.143-19.325-10.758-1.644-2.229-2.478-3.86-3.087-5.051-.662-1.295-1.099-2.15-2.049-2.725-.569-.345-1.144-.303-1.62.117-.575.508-.943 1.528-1.012 2.798-.063 1.186.143 2.484.586 3.709-.655-.268-1.35-.711-2.025-1.141-1.756-1.118-3.746-2.386-5.061-.289-.445.709-.362 1.848-.274 2.365-1.257.666-1.609 2.263-.947 4.339-.935 1.324-.776 2.745.537 4.84-.675 1.247.146 2.729 1.052 4.025 2.508 3.586 8.245 8.189 12.616 11.418 5.131 3.792 10.188 7.026 12.139 8.111.04.022.084.033.127.033Zm7.992-21.356c-.239 1.98-1.339 5.844-2.781 9.748-2.29 6.201-4.249 9.498-5.289 10.993-4.493-2.553-19.956-12.936-24.374-19.255-.882-1.262-1.608-2.568-.952-3.575a.27.27 0 0 0 .001-.292c-1.307-2.035-1.466-3.292-.566-4.48a.27.27 0 0 0 .04-.248c-.974-2.895.372-3.72.808-3.904a.267.267 0 0 0 .161-.246.239.239 0 0 0-.018-.099c-.067-.22-.234-1.484.172-2.132.965-1.537 2.282-.854 4.336.454.892.569 1.814 1.156 2.695 1.381a.263.263 0 0 0 .326-.218.277.277 0 0 0-.019-.145c-1.27-2.975-.761-5.692.077-6.433.302-.267.63-.287 1.002-.062.822.498 1.21 1.257 1.852 2.513.618 1.208 1.463 2.862 3.133 5.125 1.507 2.043 5.138 4.456 10.792 7.173a120.128 120.128 0 0 0 8.604 3.702Zm-32.975-11.37.004.009-.004-.009Z" fill="#000" fill-opacity=".2"/><path d="M217.349 157.22a.258.258 0 0 0 .154-.05.258.258 0 0 0 .096-.131.263.263 0 0 0 .002-.164.256.256 0 0 0-.093-.133c-1.657-1.267-2.477-3.031-2.485-3.048a.262.262 0 0 0-.486.019.263.263 0 0 0 .008.204c.035.077.879 1.899 2.646 3.249a.258.258 0 0 0 .158.054Zm-1.143 4.298a.263.263 0 0 0 .249-.179.267.267 0 0 0-.086-.297c-1.694-1.346-2.285-3.069-2.291-3.086a.264.264 0 0 0-.331-.161.262.262 0 0 0-.15.131.265.265 0 0 0-.018.199c.025.077.642 1.886 2.465 3.336a.258.258 0 0 0 .162.057Zm-.114 3.65a.258.258 0 0 0 .147-.046.265.265 0 0 0 .035-.413c-.833-.801-1.666-2.02-1.674-2.032a.267.267 0 0 0-.169-.111.264.264 0 0 0-.307.214.265.265 0 0 0 .042.199c.035.052.872 1.275 1.744 2.115a.259.259 0 0 0 .182.074Zm10.443 11.965c1.821 1.383 4.946 3.755 6.768 5.142 4.019-5.401 7.925-13.235 10.044-19.428-2.603-1.296-5.034-2.264-7.542-3.684-2.005 6.227-5.382 12.742-9.27 17.97Z" fill="#0A103D"/><path d="M217.349 157.22a.258.258 0 0 0 .154-.05.258.258 0 0 0 .096-.131.263.263 0 0 0 .002-.164.256.256 0 0 0-.093-.133c-1.657-1.267-2.477-3.031-2.485-3.048a.262.262 0 0 0-.486.019.263.263 0 0 0 .008.204c.035.077.879 1.899 2.646 3.249a.258.258 0 0 0 .158.054Zm-1.143 4.298a.263.263 0 0 0 .249-.179.267.267 0 0 0-.086-.297c-1.694-1.346-2.285-3.069-2.291-3.086a.264.264 0 0 0-.331-.161.262.262 0 0 0-.15.131.265.265 0 0 0-.018.199c.025.077.642 1.886 2.465 3.336a.258.258 0 0 0 .162.057Zm-.114 3.65a.258.258 0 0 0 .147-.046.265.265 0 0 0 .035-.413c-.833-.801-1.666-2.02-1.674-2.032a.267.267 0 0 0-.169-.111.264.264 0 0 0-.307.214.265.265 0 0 0 .042.199c.035.052.872 1.275 1.744 2.115a.259.259 0 0 0 .182.074Zm10.443 11.965c1.821 1.383 4.946 3.755 6.768 5.142 4.019-5.401 7.925-13.235 10.044-19.428-2.603-1.296-5.034-2.264-7.542-3.684-2.005 6.227-5.382 12.742-9.27 17.97Z" fill="#000" fill-opacity=".2"/><path d="M217.349 157.22a.258.258 0 0 0 .154-.05.258.258 0 0 0 .096-.131.263.263 0 0 0 .002-.164.256.256 0 0 0-.093-.133c-1.657-1.267-2.477-3.031-2.485-3.048a.262.262 0 0 0-.486.019.263.263 0 0 0 .008.204c.035.077.879 1.899 2.646 3.249a.258.258 0 0 0 .158.054Zm-1.143 4.298a.263.263 0 0 0 .249-.179.267.267 0 0 0-.086-.297c-1.694-1.346-2.285-3.069-2.291-3.086a.264.264 0 0 0-.331-.161.262.262 0 0 0-.15.131.265.265 0 0 0-.018.199c.025.077.642 1.886 2.465 3.336a.258.258 0 0 0 .162.057Zm-.114 3.65a.258.258 0 0 0 .147-.046.265.265 0 0 0 .035-.413c-.833-.801-1.666-2.02-1.674-2.032a.267.267 0 0 0-.169-.111.264.264 0 0 0-.307.214.265.265 0 0 0 .042.199c.035.052.872 1.275 1.744 2.115a.259.259 0 0 0 .182.074Zm10.443 11.965c1.821 1.383 4.946 3.755 6.768 5.142 4.019-5.401 7.925-13.235 10.044-19.428-2.603-1.296-5.034-2.264-7.542-3.684-2.005 6.227-5.382 12.742-9.27 17.97Z" fill="#000" fill-opacity=".2"/><path d="m237.76 175.426.359-.256c-1.322-1.901-5.025-3.895-8.224-3.718l.024.443c3.056-.169 6.585 1.725 7.841 3.531Z" fill="#fff"/><path d="M230.142 182.204c-3.753-1.518-5.945-4.893-4.898-7.538 1.048-2.645 4.939-3.56 8.691-2.042 3.753 1.517 5.945 4.892 4.898 7.537-1.048 2.645-4.939 3.56-8.691 2.043Z" fill="#0A103D"/><path d="M230.142 182.204c-3.753-1.518-5.945-4.893-4.898-7.538 1.048-2.645 4.939-3.56 8.691-2.042 3.753 1.517 5.945 4.892 4.898 7.537-1.048 2.645-4.939 3.56-8.691 2.043Z" fill="#000" fill-opacity=".2"/><path d="M230.142 182.204c-3.753-1.518-5.945-4.893-4.898-7.538 1.048-2.645 4.939-3.56 8.691-2.042 3.753 1.517 5.945 4.892 4.898 7.537-1.048 2.645-4.939 3.56-8.691 2.043Z" fill="#000" fill-opacity=".2"/><path d="M230.116 182.27c-3.643-1.474-5.868-4.507-4.969-6.776.898-2.268 4.58-2.913 8.223-1.439 3.642 1.473 5.867 4.507 4.968 6.775-.898 2.269-4.58 2.913-8.222 1.44Z" fill="#fff"/><path d="M233.961 183.331c.463 0 .912-.037 1.341-.112 1.647-.288 2.812-1.1 3.282-2.287.47-1.186.181-2.586-.814-3.943-.968-1.319-2.495-2.447-4.302-3.178-1.806-.731-3.682-.979-5.283-.699-1.646.289-2.812 1.101-3.281 2.287-.47 1.186-.181 2.586.814 3.943.967 1.319 2.495 2.448 4.301 3.178 1.322.535 2.681.811 3.942.811Zm-.688-9.026c3.502 1.417 5.665 4.301 4.822 6.429-.399 1.009-1.423 1.705-2.883 1.96-1.505.264-3.28.026-4.997-.668-1.717-.695-3.164-1.76-4.074-3.001-.882-1.203-1.148-2.42-.748-3.429.399-1.008 1.423-1.704 2.882-1.959 1.506-.264 3.281-.026 4.998.668Z" fill="#0A103D"/><path d="M233.961 183.331c.463 0 .912-.037 1.341-.112 1.647-.288 2.812-1.1 3.282-2.287.47-1.186.181-2.586-.814-3.943-.968-1.319-2.495-2.447-4.302-3.178-1.806-.731-3.682-.979-5.283-.699-1.646.289-2.812 1.101-3.281 2.287-.47 1.186-.181 2.586.814 3.943.967 1.319 2.495 2.448 4.301 3.178 1.322.535 2.681.811 3.942.811Zm-.688-9.026c3.502 1.417 5.665 4.301 4.822 6.429-.399 1.009-1.423 1.705-2.883 1.96-1.505.264-3.28.026-4.997-.668-1.717-.695-3.164-1.76-4.074-3.001-.882-1.203-1.148-2.42-.748-3.429.399-1.008 1.423-1.704 2.882-1.959 1.506-.264 3.281-.026 4.998.668Z" fill="#000" fill-opacity=".2"/><path d="M233.961 183.331c.463 0 .912-.037 1.341-.112 1.647-.288 2.812-1.1 3.282-2.287.47-1.186.181-2.586-.814-3.943-.968-1.319-2.495-2.447-4.302-3.178-1.806-.731-3.682-.979-5.283-.699-1.646.289-2.812 1.101-3.281 2.287-.47 1.186-.181 2.586.814 3.943.967 1.319 2.495 2.448 4.301 3.178 1.322.535 2.681.811 3.942.811Zm-.688-9.026c3.502 1.417 5.665 4.301 4.822 6.429-.399 1.009-1.423 1.705-2.883 1.96-1.505.264-3.28.026-4.997-.668-1.717-.695-3.164-1.76-4.074-3.001-.882-1.203-1.148-2.42-.748-3.429.399-1.008 1.423-1.704 2.882-1.959 1.506-.264 3.281-.026 4.998.668Z" fill="#000" fill-opacity=".2"/><path d="M232.661 175.794a.307.307 0 0 1 .246.149.311.311 0 0 1 .018.289l-1.105 2.51a.316.316 0 0 1-.172.165.305.305 0 0 1-.237-.006l-.005-.003-3.841-1.822a.314.314 0 0 1 .026-.576.307.307 0 0 1 .236.011l3.555 1.686.978-2.219a.305.305 0 0 1 .301-.184Z" fill="#0A103D"/><path d="M232.661 175.794a.307.307 0 0 1 .246.149.311.311 0 0 1 .018.289l-1.105 2.51a.316.316 0 0 1-.172.165.305.305 0 0 1-.237-.006l-.005-.003-3.841-1.822a.314.314 0 0 1 .026-.576.307.307 0 0 1 .236.011l3.555 1.686.978-2.219a.305.305 0 0 1 .301-.184Z" fill="#000" fill-opacity=".2"/><path d="M232.661 175.794a.307.307 0 0 1 .246.149.311.311 0 0 1 .018.289l-1.105 2.51a.316.316 0 0 1-.172.165.305.305 0 0 1-.237-.006l-.005-.003-3.841-1.822a.314.314 0 0 1 .026-.576.307.307 0 0 1 .236.011l3.555 1.686.978-2.219a.305.305 0 0 1 .301-.184Z" fill="#000" fill-opacity=".2"/><g clip-path="url(#b)"><path d="m208.396 136.547 4.254 7.185a1.51 1.51 0 1 0 2.6-1.54l-4.183-7.064-2.671 1.419Z" fill="#fff"/><path d="M214.502 144.683a1.811 1.811 0 0 0 1.003-2.64l-4.184-7.066a.295.295 0 0 0-.392-.11l-2.671 1.419a.3.3 0 0 0-.155.299c.006.04.019.078.039.112l4.254 7.185a1.798 1.798 0 0 0 2.106.801Zm-3.546-9.162 4.04 6.822a1.222 1.222 0 0 1-.716 1.79 1.211 1.211 0 0 1-1.283-.419 1.3 1.3 0 0 1-.094-.134l-4.095-6.917 2.148-1.142Z" fill="#0A103D"/><path d="M214.502 144.683a1.811 1.811 0 0 0 1.003-2.64l-4.184-7.066a.295.295 0 0 0-.392-.11l-2.671 1.419a.3.3 0 0 0-.155.299c.006.04.019.078.039.112l4.254 7.185a1.798 1.798 0 0 0 2.106.801Zm-3.546-9.162 4.04 6.822a1.222 1.222 0 0 1-.716 1.79 1.211 1.211 0 0 1-1.283-.419 1.3 1.3 0 0 1-.094-.134l-4.095-6.917 2.148-1.142Z" fill="#000" fill-opacity=".2"/><path d="M214.502 144.683a1.811 1.811 0 0 0 1.003-2.64l-4.184-7.066a.295.295 0 0 0-.392-.11l-2.671 1.419a.3.3 0 0 0-.155.299c.006.04.019.078.039.112l4.254 7.185a1.798 1.798 0 0 0 2.106.801Zm-3.546-9.162 4.04 6.822a1.222 1.222 0 0 1-.716 1.79 1.211 1.211 0 0 1-1.283-.419 1.3 1.3 0 0 1-.094-.134l-4.095-6.917 2.148-1.142Z" fill="#000" fill-opacity=".2"/><path d="M222.437 156.898a3.117 3.117 0 0 0 .97-4.412l-6.824-10.305a.865.865 0 0 0-1.167-.263l-2.96 1.788a.864.864 0 0 0-.31 1.155l5.936 10.841a3.115 3.115 0 0 0 4.355 1.196Z" fill="#0A103D"/><path d="M222.437 156.898a3.117 3.117 0 0 0 .97-4.412l-6.824-10.305a.865.865 0 0 0-1.167-.263l-2.96 1.788a.864.864 0 0 0-.31 1.155l5.936 10.841a3.115 3.115 0 0 0 4.355 1.196Z" fill="#000" fill-opacity=".2"/><path d="M222.437 156.898a3.117 3.117 0 0 0 .97-4.412l-6.824-10.305a.865.865 0 0 0-1.167-.263l-2.96 1.788a.864.864 0 0 0-.31 1.155l5.936 10.841a3.115 3.115 0 0 0 4.355 1.196Z" fill="#000" fill-opacity=".2"/><path d="M186.475 114.935a16.652 16.652 0 0 1 9.707-8.395l.16-.051c8.817-2.826 18.258 2.038 21.086 10.863a16.783 16.783 0 0 1-.981 12.651 16.653 16.653 0 0 1-8.433 7.915c-.415.178-.84.337-1.273.481l-.158.051c-8.818 2.826-18.26-2.038-21.088-10.863a16.79 16.79 0 0 1 .98-12.652Zm19.082 20.315.126-.041c7.03-2.329 10.839-9.921 8.508-16.957a13.426 13.426 0 0 0-6.715-7.773 13.305 13.305 0 0 0-10.108-.79l-.128.041c-7.029 2.331-10.835 9.925-8.502 16.96 2.316 6.983 9.818 10.801 16.819 8.56Z" fill="#fff"/><path d="m206.673 138.731.158-.051a17.078 17.078 0 0 0 2.256-.93c.92-.456 1.797-.995 2.619-1.611l.011-.009.005-.003a17.046 17.046 0 0 0 4.991-5.993 16.986 16.986 0 0 0 .997-12.872c-2.874-8.966-12.499-13.925-21.458-11.054l-.16.052a17.06 17.06 0 0 0-9.881 8.543 16.987 16.987 0 0 0-.997 12.874 16.967 16.967 0 0 0 8.444 9.973 16.941 16.941 0 0 0 13.015 1.081Zm4.668-3.057c-.79.592-1.633 1.11-2.519 1.548-.29.147-.591.285-.921.424-.395.169-.816.328-1.253.473l-.155.05a16.36 16.36 0 0 1-12.564-1.043 16.385 16.385 0 0 1-8.152-9.629 16.4 16.4 0 0 1 .962-12.429l.001-.001a16.463 16.463 0 0 1 9.535-8.246l.157-.05c8.648-2.772 17.941 2.015 20.715 10.672a16.402 16.402 0 0 1-.963 12.428 16.456 16.456 0 0 1-4.843 5.803Zm.355.47h-.001.001Zm.04-.031-.001.001.001-.001Zm-6.089-.581.127-.041c7.175-2.378 11.076-10.152 8.697-17.331a13.63 13.63 0 0 0-6.862-7.945 13.517 13.517 0 0 0-10.296-.818l-.163.052c-7.175 2.38-11.073 10.156-8.692 17.334a13.634 13.634 0 0 0 6.799 7.909 13.618 13.618 0 0 0 10.39.84Zm-8.155-25.573a12.93 12.93 0 0 1 9.851.784 13.044 13.044 0 0 1 6.567 7.603c2.277 6.87-1.456 14.309-8.319 16.584l-.124.039a13.027 13.027 0 0 1-9.942-.803 13.054 13.054 0 0 1-6.506-7.569c-2.279-6.869 1.451-14.31 8.314-16.587l.125-.04a.448.448 0 0 0 .034-.011Z" fill="#0A103D"/><path d="m206.673 138.731.158-.051a17.078 17.078 0 0 0 2.256-.93c.92-.456 1.797-.995 2.619-1.611l.011-.009.005-.003a17.046 17.046 0 0 0 4.991-5.993 16.986 16.986 0 0 0 .997-12.872c-2.874-8.966-12.499-13.925-21.458-11.054l-.16.052a17.06 17.06 0 0 0-9.881 8.543 16.987 16.987 0 0 0-.997 12.874 16.967 16.967 0 0 0 8.444 9.973 16.941 16.941 0 0 0 13.015 1.081Zm4.668-3.057c-.79.592-1.633 1.11-2.519 1.548-.29.147-.591.285-.921.424-.395.169-.816.328-1.253.473l-.155.05a16.36 16.36 0 0 1-12.564-1.043 16.385 16.385 0 0 1-8.152-9.629 16.4 16.4 0 0 1 .962-12.429l.001-.001a16.463 16.463 0 0 1 9.535-8.246l.157-.05c8.648-2.772 17.941 2.015 20.715 10.672a16.402 16.402 0 0 1-.963 12.428 16.456 16.456 0 0 1-4.843 5.803Zm.355.47h-.001.001Zm.04-.031-.001.001.001-.001Zm-6.089-.581.127-.041c7.175-2.378 11.076-10.152 8.697-17.331a13.63 13.63 0 0 0-6.862-7.945 13.517 13.517 0 0 0-10.296-.818l-.163.052c-7.175 2.38-11.073 10.156-8.692 17.334a13.634 13.634 0 0 0 6.799 7.909 13.618 13.618 0 0 0 10.39.84Zm-8.155-25.573a12.93 12.93 0 0 1 9.851.784 13.044 13.044 0 0 1 6.567 7.603c2.277 6.87-1.456 14.309-8.319 16.584l-.124.039a13.027 13.027 0 0 1-9.942-.803 13.054 13.054 0 0 1-6.506-7.569c-2.279-6.869 1.451-14.31 8.314-16.587l.125-.04a.448.448 0 0 0 .034-.011Z" fill="#000" fill-opacity=".2"/><path d="m206.673 138.731.158-.051a17.078 17.078 0 0 0 2.256-.93c.92-.456 1.797-.995 2.619-1.611l.011-.009.005-.003a17.046 17.046 0 0 0 4.991-5.993 16.986 16.986 0 0 0 .997-12.872c-2.874-8.966-12.499-13.925-21.458-11.054l-.16.052a17.06 17.06 0 0 0-9.881 8.543 16.987 16.987 0 0 0-.997 12.874 16.967 16.967 0 0 0 8.444 9.973 16.941 16.941 0 0 0 13.015 1.081Zm4.668-3.057c-.79.592-1.633 1.11-2.519 1.548-.29.147-.591.285-.921.424-.395.169-.816.328-1.253.473l-.155.05a16.36 16.36 0 0 1-12.564-1.043 16.385 16.385 0 0 1-8.152-9.629 16.4 16.4 0 0 1 .962-12.429l.001-.001a16.463 16.463 0 0 1 9.535-8.246l.157-.05c8.648-2.772 17.941 2.015 20.715 10.672a16.402 16.402 0 0 1-.963 12.428 16.456 16.456 0 0 1-4.843 5.803Zm.355.47h-.001.001Zm.04-.031-.001.001.001-.001Zm-6.089-.581.127-.041c7.175-2.378 11.076-10.152 8.697-17.331a13.63 13.63 0 0 0-6.862-7.945 13.517 13.517 0 0 0-10.296-.818l-.163.052c-7.175 2.38-11.073 10.156-8.692 17.334a13.634 13.634 0 0 0 6.799 7.909 13.618 13.618 0 0 0 10.39.84Zm-8.155-25.573a12.93 12.93 0 0 1 9.851.784 13.044 13.044 0 0 1 6.567 7.603c2.277 6.87-1.456 14.309-8.319 16.584l-.124.039a13.027 13.027 0 0 1-9.942-.803 13.054 13.054 0 0 1-6.506-7.569c-2.279-6.869 1.451-14.31 8.314-16.587l.125-.04a.448.448 0 0 0 .034-.011Z" fill="#000" fill-opacity=".2"/></g></g><g clip-path="url(#c)"><path d="m222.567 75.859-5.222-1.853a1.655 1.655 0 0 1-1.007-2.119l.968-2.7a14.71 14.71 0 0 1 3.623-5.633 10.605 10.605 0 0 1 3.74-2.337c4.577-1.695 6.659-2.593 7.233-2.884a5.962 5.962 0 0 0-1.645-10.347 6.013 6.013 0 0 0-6.602 1.774 1.66 1.66 0 0 1-2.036.397l-4.984-2.59a1.653 1.653 0 0 1-.602-2.406 14.9 14.9 0 0 1 17.581-5.372c7.655 2.95 11.453 11.53 8.482 19.165a14.854 14.854 0 0 1-5.016 6.559c-.566.423-1.421 1.064-9.331 3.994-.234.08-.449.208-.631.375a5.916 5.916 0 0 0-1.456 2.268l-.969 2.701a1.667 1.667 0 0 1-2.126 1.008Zm-9.975 6.613 1.26-3.522a1.668 1.668 0 0 1 2.127-1.008l5.224 1.85a1.655 1.655 0 0 1 1.008 2.12l-1.26 3.52a1.668 1.668 0 0 1-2.127 1.009l-5.224-1.85a1.656 1.656 0 0 1-1.008-2.12Z" fill="#9763F6"/></g><path d="M160.496 87.197a.496.496 0 0 1 .09-.413.496.496 0 0 1 .369-.195l.504-1.702.582.709-.568 1.508a.505.505 0 0 1-.132.33.493.493 0 0 1-.654.063.5.5 0 0 1-.191-.3Z" fill="#FFB6B6"/><path d="M127.448 78.352c.98-.47 1.75-1.3 2.157-2.322.04-.101.192-.032.152.069a4.528 4.528 0 0 1-2.249 2.411c-.098.047-.157-.112-.06-.158ZM153.62 74.489c.98-.47 1.75-1.3 2.157-2.322.04-.101.192-.033.152.069a4.528 4.528 0 0 1-2.249 2.411c-.098.046-.157-.112-.06-.158Z" fill="#fff"/><path d="m124.125 99.615.575.454 2.238.395 2.486-6.291s1.523-4.85 5.787-3.857l13.704-.248s4.208-.44 4.903 1.58c.132.383 3.685 8.835 3.685 8.835l2.492-.357-.299-7.206-5.917-13.981-10.285-.654-10.598.747-8.771 20.584Z" fill="#474C6D"/><path d="M135.507 90.7c2.188 0 3.961-1.804 3.961-4.03 0-2.225-1.773-4.03-3.961-4.03-2.187 0-3.96 1.805-3.96 4.03 0 2.226 1.773 4.03 3.96 4.03Z" fill="#0A103D"/><path d="M135.507 90.7c2.188 0 3.961-1.804 3.961-4.03 0-2.225-1.773-4.03-3.961-4.03-2.187 0-3.96 1.805-3.96 4.03 0 2.226 1.773 4.03 3.96 4.03Z" fill="#000" fill-opacity=".2"/><path d="M135.507 90.7c2.188 0 3.961-1.804 3.961-4.03 0-2.225-1.773-4.03-3.961-4.03-2.187 0-3.96 1.805-3.96 4.03 0 2.226 1.773 4.03 3.96 4.03Z" fill="#000" fill-opacity=".2"/><path d="M148.796 90.689c2.188 0 3.961-1.804 3.961-4.03s-1.773-4.03-3.961-4.03c-2.187 0-3.96 1.804-3.96 4.03 0 2.225 1.773 4.03 3.96 4.03Z" fill="#0A103D"/><path d="M148.796 90.689c2.188 0 3.961-1.804 3.961-4.03s-1.773-4.03-3.961-4.03c-2.187 0-3.96 1.804-3.96 4.03 0 2.225 1.773 4.03 3.96 4.03Z" fill="#000" fill-opacity=".2"/><path d="M148.796 90.689c2.188 0 3.961-1.804 3.961-4.03s-1.773-4.03-3.961-4.03c-2.187 0-3.96 1.804-3.96 4.03 0 2.225 1.773 4.03 3.96 4.03Z" fill="#000" fill-opacity=".2"/><path d="m130.867 73.475 1.631-.326s12.277-1.782 20.037.326l-.587 1.674-20.532-.124-.549-1.55Z" fill="#E6E6E6"/><path d="M147.467 82.108h-10.42a2.645 2.645 0 0 1-2.599-2.12l-1.141-5.803a.953.953 0 0 1 .825-1.132c5.496-.694 10.937-.696 16.174-.004a.948.948 0 0 1 .657.394.931.931 0 0 1 .163.724l-1.053 5.785a2.638 2.638 0 0 1-2.606 2.156Z" fill="#CBB1FB"/><path d="m126.211 74.444.045-.83a.8.8 0 0 1 .375-.639c.658-.41 2.432-1.315 4.697-.841a.792.792 0 0 1 .622.672l.061.433-5.8 1.205ZM158.159 74.445l-5.8-1.206.098-.694a.412.412 0 0 1 .305-.345c2.612-.667 4.611.517 5.162.896a.415.415 0 0 1 .179.322l.056 1.027Z" fill="#474C6D"/><path d="M124.426 100.132a.724.724 0 0 1-.396-.114c-1.553-.922-2.521-2.613-2.875-5.024-.293-1.992-.17-4.492.363-7.43.946-5.21 2.929-10.417 3.738-12.414.107-.264.274-.498.486-.684.212-.186.465-.32.737-.388 1.667-.417 4.577-1.117 5.337-1.117 1.041 0 1.605.998 1.611 1.008l.003.008.914 4.036v.058c.505 1.738.13 2.993-.274 3.74-.438.81-1.005 1.215-1.01 1.22-.89.69-2.341 2.91-3.784 5.797-1.5 2.999-2.612 5.958-2.974 7.916-.444 2.396-1.094 3.13-1.562 3.323a.824.824 0 0 1-.314.065ZM147.03 81.632h-9.845a2.481 2.481 0 0 1-1.592-.583 2.565 2.565 0 0 1-.866-1.48l-1.077-5.644a.943.943 0 0 1 .156-.723.913.913 0 0 1 .624-.378c5.193-.675 10.335-.677 15.283-.004a.907.907 0 0 1 .617.375.937.937 0 0 1 .159.713l-.994 5.626a2.556 2.556 0 0 1-.858 1.505 2.476 2.476 0 0 1-1.607.593ZM160.021 100.132a.824.824 0 0 1-.314-.065c-.468-.193-1.118-.927-1.562-3.323-.362-1.958-1.474-4.917-2.974-7.916-1.443-2.886-2.894-5.108-3.785-5.798-.004-.004-.571-.408-1.009-1.22-.404-.746-.779-2.001-.274-3.739v-.065l.915-4.033.002-.004c.006-.01.569-1.008 1.611-1.008.76 0 3.67.7 5.337 1.117.272.069.525.202.737.388.212.186.379.42.486.684.809 1.997 2.792 7.204 3.738 12.414.533 2.938.656 5.438.363 7.43-.354 2.41-1.322 4.102-2.878 5.026a.718.718 0 0 1-.393.112Z" fill="#B0B0B0"/><path d="M135.548 88.438c1.312 0 2.376-1.083 2.376-2.419 0-1.335-1.064-2.417-2.376-2.417-1.312 0-2.376 1.082-2.376 2.417 0 1.336 1.064 2.418 2.376 2.418Z" fill="#474C6D"/><path d="M135.521 87.625c.875 0 1.584-.721 1.584-1.611s-.709-1.612-1.584-1.612c-.875 0-1.583.722-1.583 1.612 0 .89.708 1.611 1.583 1.611Z" fill="#0A103D"/><path d="M135.521 87.625c.875 0 1.584-.721 1.584-1.611s-.709-1.612-1.584-1.612c-.875 0-1.583.722-1.583 1.612 0 .89.708 1.611 1.583 1.611Z" fill="#000" fill-opacity=".2"/><path d="M135.521 87.625c.875 0 1.584-.721 1.584-1.611s-.709-1.612-1.584-1.612c-.875 0-1.583.722-1.583 1.612 0 .89.708 1.611 1.583 1.611Z" fill="#000" fill-opacity=".2"/><path d="M148.829 88.438c1.313 0 2.377-1.083 2.377-2.419 0-1.335-1.064-2.417-2.377-2.417-1.312 0-2.376 1.082-2.376 2.417 0 1.336 1.064 2.418 2.376 2.418Z" fill="#474C6D"/><path d="M148.802 87.625c.875 0 1.584-.721 1.584-1.611s-.709-1.612-1.584-1.612c-.874 0-1.583.722-1.583 1.612 0 .89.709 1.611 1.583 1.611Z" fill="#0A103D"/><path d="M148.802 87.625c.875 0 1.584-.721 1.584-1.611s-.709-1.612-1.584-1.612c-.874 0-1.583.722-1.583 1.612 0 .89.709 1.611 1.583 1.611Z" fill="#000" fill-opacity=".2"/><path d="M148.802 87.625c.875 0 1.584-.721 1.584-1.611s-.709-1.612-1.584-1.612c-.874 0-1.583.722-1.583 1.612 0 .89.709 1.611 1.583 1.611Z" fill="#000" fill-opacity=".2"/><path d="M140.717 83.136a.203.203 0 0 0 .202-.205.203.203 0 0 0-.202-.204.203.203 0 0 0-.201.204c0 .113.09.205.201.205Z" fill="#0A103D"/><path d="M140.717 83.136a.203.203 0 0 0 .202-.205.203.203 0 0 0-.202-.204.203.203 0 0 0-.201.204c0 .113.09.205.201.205Z" fill="#000" fill-opacity=".2"/><path d="M140.717 83.136a.203.203 0 0 0 .202-.205.203.203 0 0 0-.202-.204.203.203 0 0 0-.201.204c0 .113.09.205.201.205Z" fill="#000" fill-opacity=".2"/><path d="M141.491 83.136a.203.203 0 0 0 .201-.205.203.203 0 0 0-.201-.204.203.203 0 0 0-.202.204c0 .113.09.205.202.205Z" fill="#0A103D"/><path d="M141.491 83.136a.203.203 0 0 0 .201-.205.203.203 0 0 0-.201-.204.203.203 0 0 0-.202.204c0 .113.09.205.202.205Z" fill="#000" fill-opacity=".2"/><path d="M141.491 83.136a.203.203 0 0 0 .201-.205.203.203 0 0 0-.201-.204.203.203 0 0 0-.202.204c0 .113.09.205.202.205Z" fill="#000" fill-opacity=".2"/><path d="M141.147 83.85a.204.204 0 0 0 .202-.204.204.204 0 0 0-.202-.205.204.204 0 0 0-.202.205c0 .113.091.205.202.205Z" fill="#0A103D"/><path d="M141.147 83.85a.204.204 0 0 0 .202-.204.204.204 0 0 0-.202-.205.204.204 0 0 0-.202.205c0 .113.091.205.202.205Z" fill="#000" fill-opacity=".2"/><path d="M141.147 83.85a.204.204 0 0 0 .202-.204.204.204 0 0 0-.202-.205.204.204 0 0 0-.202.205c0 .113.091.205.202.205Z" fill="#000" fill-opacity=".2"/><path d="M141.889 83.85a.203.203 0 0 0 .202-.204.203.203 0 0 0-.202-.205.203.203 0 0 0-.201.205c0 .113.09.205.201.205Z" fill="#0A103D"/><path d="M141.889 83.85a.203.203 0 0 0 .202-.204.203.203 0 0 0-.202-.205.203.203 0 0 0-.201.205c0 .113.09.205.201.205Z" fill="#000" fill-opacity=".2"/><path d="M141.889 83.85a.203.203 0 0 0 .202-.204.203.203 0 0 0-.202-.205.203.203 0 0 0-.201.205c0 .113.09.205.201.205Z" fill="#000" fill-opacity=".2"/><path d="M142.6 83.85a.204.204 0 0 0 .202-.204.204.204 0 0 0-.202-.205.204.204 0 0 0-.202.205c0 .113.091.205.202.205Z" fill="#0A103D"/><path d="M142.6 83.85a.204.204 0 0 0 .202-.204.204.204 0 0 0-.202-.205.204.204 0 0 0-.202.205c0 .113.091.205.202.205Z" fill="#000" fill-opacity=".2"/><path d="M142.6 83.85a.204.204 0 0 0 .202-.204.204.204 0 0 0-.202-.205.204.204 0 0 0-.202.205c0 .113.091.205.202.205Z" fill="#000" fill-opacity=".2"/><path d="M143.303 83.85a.203.203 0 0 0 .202-.204.203.203 0 0 0-.202-.205.203.203 0 0 0-.201.205c0 .113.09.205.201.205Z" fill="#0A103D"/><path d="M143.303 83.85a.203.203 0 0 0 .202-.204.203.203 0 0 0-.202-.205.203.203 0 0 0-.201.205c0 .113.09.205.201.205Z" fill="#000" fill-opacity=".2"/><path d="M143.303 83.85a.203.203 0 0 0 .202-.204.203.203 0 0 0-.202-.205.203.203 0 0 0-.201.205c0 .113.09.205.201.205Z" fill="#000" fill-opacity=".2"/><path d="M142.303 83.136a.203.203 0 0 0 .202-.205.203.203 0 0 0-.202-.204.203.203 0 0 0-.201.204c0 .113.09.205.201.205Z" fill="#0A103D"/><path d="M142.303 83.136a.203.203 0 0 0 .202-.205.203.203 0 0 0-.202-.204.203.203 0 0 0-.201.204c0 .113.09.205.201.205Z" fill="#000" fill-opacity=".2"/><path d="M142.303 83.136a.203.203 0 0 0 .202-.205.203.203 0 0 0-.202-.204.203.203 0 0 0-.201.204c0 .113.09.205.201.205Z" fill="#000" fill-opacity=".2"/><path d="M143.092 83.136a.203.203 0 0 0 .202-.205.203.203 0 0 0-.202-.204.203.203 0 0 0-.201.204c0 .113.09.205.201.205Z" fill="#0A103D"/><path d="M143.092 83.136a.203.203 0 0 0 .202-.205.203.203 0 0 0-.202-.204.203.203 0 0 0-.201.204c0 .113.09.205.201.205Z" fill="#000" fill-opacity=".2"/><path d="M143.092 83.136a.203.203 0 0 0 .202-.205.203.203 0 0 0-.202-.204.203.203 0 0 0-.201.204c0 .113.09.205.201.205Z" fill="#000" fill-opacity=".2"/><path d="M143.858 83.136a.204.204 0 0 0 .202-.205.204.204 0 0 0-.202-.204.204.204 0 0 0-.202.204c0 .113.091.205.202.205Z" fill="#0A103D"/><path d="M143.858 83.136a.204.204 0 0 0 .202-.205.204.204 0 0 0-.202-.204.204.204 0 0 0-.202.204c0 .113.091.205.202.205Z" fill="#000" fill-opacity=".2"/><path d="M143.858 83.136a.204.204 0 0 0 .202-.205.204.204 0 0 0-.202-.204.204.204 0 0 0-.202.204c0 .113.091.205.202.205Z" fill="#000" fill-opacity=".2"/><path d="M143.006 88.667h-1.583a.279.279 0 0 1 0-.557h1.583c.073 0 .142.029.194.081a.282.282 0 0 1 0 .394.273.273 0 0 1-.194.082Z" fill="#0A103D"/><path d="M143.006 88.667h-1.583a.279.279 0 0 1 0-.557h1.583c.073 0 .142.029.194.081a.282.282 0 0 1 0 .394.273.273 0 0 1-.194.082Z" fill="#000" fill-opacity=".2"/><path d="M143.006 88.667h-1.583a.279.279 0 0 1 0-.557h1.583c.073 0 .142.029.194.081a.282.282 0 0 1 0 .394.273.273 0 0 1-.194.082Z" fill="#000" fill-opacity=".2"/><path d="M132.469 76.52a.45.45 0 0 1-.281-.1.467.467 0 0 1-.16-.256l-.243-1.05a.469.469 0 0 1 .057-.348.452.452 0 0 1 .624-.15.462.462 0 0 1 .204.287l.242 1.049a.465.465 0 0 1-.443.568ZM151.963 76.446a.447.447 0 0 1-.357-.175.474.474 0 0 1-.086-.394l.243-1.049a.457.457 0 0 1 .546-.343.457.457 0 0 1 .282.206c.063.105.083.23.056.35l-.243 1.048a.467.467 0 0 1-.16.257.45.45 0 0 1-.281.1ZM129.129 79.621a.717.717 0 0 1-.418-.134l-.51-.363a.735.735 0 0 1-.31-.607v-1.112a.85.85 0 0 1 .242-.596.824.824 0 0 1 .585-.246h.781c.22 0 .43.089.585.246a.85.85 0 0 1 .243.596v1.123a.745.745 0 0 1-.297.596l-.469.353a.719.719 0 0 1-.432.144ZM129.499 83.668h-.781a.823.823 0 0 1-.585-.247.85.85 0 0 1-.242-.595v-1.112a.752.752 0 0 1 .31-.607l.51-.364a.72.72 0 0 1 .85.011l.469.352a.745.745 0 0 1 .297.597v1.123a.85.85 0 0 1-.243.595.82.82 0 0 1-.585.247ZM131.944 81.358h-1.093a.732.732 0 0 1-.597-.316l-.357-.519a.751.751 0 0 1 .011-.865l.346-.478a.734.734 0 0 1 .586-.301h1.104c.219 0 .43.089.585.247a.85.85 0 0 1 .242.595v.795a.85.85 0 0 1-.242.595.822.822 0 0 1-.585.247ZM127.374 81.358h-1.093a.82.82 0 0 1-.585-.247.85.85 0 0 1-.243-.595v-.795a.85.85 0 0 1 .243-.595.82.82 0 0 1 .585-.247h1.103a.724.724 0 0 1 .587.301l.346.478a.754.754 0 0 1 .01.865l-.357.519a.729.729 0 0 1-.596.316ZM155.252 78.343c.774 0 1.401-.638 1.401-1.425 0-.788-.627-1.426-1.401-1.426-.773 0-1.4.638-1.4 1.426 0 .787.627 1.425 1.4 1.425ZM158.448 81.648c.773 0 1.4-.638 1.4-1.426 0-.787-.627-1.425-1.4-1.425-.774 0-1.401.638-1.401 1.425 0 .788.627 1.426 1.401 1.426ZM155.252 84.812c.774 0 1.401-.638 1.401-1.426 0-.787-.627-1.425-1.401-1.425-.773 0-1.4.638-1.4 1.425 0 .788.627 1.426 1.4 1.426ZM152.213 81.616c.774 0 1.401-.638 1.401-1.425s-.627-1.425-1.401-1.425c-.773 0-1.401.638-1.401 1.425s.628 1.425 1.401 1.425Z" fill="#474C6D"/><path d="M158.445 81.168a.905.905 0 0 1-.508-.157.926.926 0 0 1-.336-.417.948.948 0 0 1 .198-1.013.907.907 0 0 1 .995-.202.936.936 0 0 1 .564.859.938.938 0 0 1-.267.657.909.909 0 0 1-.646.273Zm0-1.736a.781.781 0 0 0-.44.136.805.805 0 0 0-.337.827c.031.157.106.3.217.413a.78.78 0 0 0 1.218-.122.816.816 0 0 0-.099-1.017.784.784 0 0 0-.559-.236ZM156.305 77.67l-1.836-.026.94-1.605.896 1.631Zm-1.624-.147 1.414.02-.689-1.256-.725 1.236ZM152.93 80.924h-1.461v-1.487h1.461v1.487Zm-1.339-.124h1.217v-1.239h-1.217v1.24ZM156.066 83.96l-.67-.679.591-.6-.086-.087-.591.6-.59-.6-.086.088.59.599-.669.68.086.088.669-.68.67.68.086-.088Z" fill="#E6E6E6"/><defs><clipPath id="a"><path fill="#fff" transform="matrix(-1 0 0 1 316 73)" d="M0 0h158v132.608H0z"/></clipPath><clipPath id="b"><path fill="#fff" transform="scale(-1 1) rotate(17.778 -429.135 -628.826)" d="M0 0h34.124v56.35H0z"/></clipPath><clipPath id="c"><path fill="#fff" transform="rotate(77.88 97.556 166.298)" d="M0 0h45.189v36.475H0z"/></clipPath></defs></svg>